<svg width="111" height="100" viewBox="0 0 111 100" fill="none" xmlns="http://www.w3.org/2000/svg">
<g clip-path="url(#clip0_1322_17)">
<mask id="path-1-outside-1_1322_17" maskUnits="userSpaceOnUse" x="-1.00659" y="-0.984985" width="113" height="102" fill="black">
<rect fill="white" x="-1.00659" y="-0.984985" width="113" height="102"/>
<path d="M12.5561 61.3976C13.5949 61.887 14.6698 62.2677 15.799 62.5577C16.9191 62.8478 18.0934 63.0562 19.2948 63.165C20.3607 63.2647 21.4628 63.3009 22.5919 63.2738C23.5675 63.2466 24.5793 63.1741 25.6181 63.0562C25.3832 61.2797 25.2658 59.7026 25.3109 58.2887C25.3561 56.7207 25.609 55.3702 26.1149 54.1828C26.5846 53.0861 27.2531 52.1616 28.1654 51.3912C28.9062 50.7568 29.8095 50.2311 30.9025 49.796C30.1889 49.1162 29.5385 48.4999 28.9694 47.9198C28.2467 47.1857 27.6505 46.5149 27.1898 45.8624C26.0336 44.2399 25.6542 42.8351 26.2143 41.3396C26.7472 39.9256 28.1745 38.4845 30.6496 36.7171C31.9232 35.8107 32.4562 35.0131 32.6098 34.2245C32.7724 33.4269 32.5465 32.5659 32.3026 31.6142C32.1671 31.0704 32.0226 30.5084 31.9142 29.9555C31.8058 29.4208 31.7245 28.8679 31.6884 28.2697C30.758 27.3996 29.412 26.2213 27.786 25.469C26.1149 24.6986 24.1276 24.3632 21.9777 25.2786C21.5802 25.4418 21.1557 25.4327 20.7943 25.2877C20.424 25.1336 20.1168 24.8436 19.9543 24.4539C19.7917 24.055 19.8007 23.6381 19.9452 23.2665C20.0988 22.8949 20.3878 22.5867 20.7763 22.4236H20.7853C23.3688 21.3269 25.7174 21.4356 27.7318 22.0792C29.4572 22.632 30.9386 23.5837 32.131 24.5264C32.3478 23.8013 32.6549 23.0308 33.0795 22.2151C33.6305 21.1456 34.3803 19.9945 35.383 18.7437C35.8256 18.1999 36.2592 17.6289 36.6747 17.0216C37.0902 16.4143 37.4787 15.7436 37.831 15.0004C38.1833 14.2481 38.4994 13.3961 38.7523 12.4082C39.0053 11.4112 39.204 10.2873 39.3214 8.98208C39.3576 8.55609 39.5653 8.18448 39.8725 7.92163C40.1796 7.66785 40.5771 7.52283 41.0016 7.55908C41.4262 7.59534 41.7965 7.8038 42.0585 8.11197L42.0856 8.14822C42.3205 8.44733 42.456 8.83707 42.4198 9.254L42.4108 9.29932C42.2753 10.7858 42.0495 12.0819 41.7514 13.233C41.4442 14.4022 41.0739 15.4173 40.6493 16.3237C40.2248 17.2391 39.755 18.0277 39.2763 18.7437C38.7975 19.4507 38.3007 20.0851 37.8129 20.7015C36.7018 22.0882 35.9701 23.3209 35.5094 24.4176C35.0668 25.4781 34.8771 26.4207 34.8319 27.2727C34.8681 27.3996 34.8861 27.5355 34.8771 27.6715C34.8771 27.8074 34.859 27.9434 34.8229 28.0703C34.85 28.5597 34.9132 29.022 35.0036 29.4752C35.1029 29.9737 35.2113 30.4178 35.3288 30.8438C35.7082 32.3121 36.0424 33.6354 35.7624 35.004C35.4733 36.3817 34.57 37.7503 32.4743 39.2458C30.8212 40.4241 29.8637 41.3124 29.4662 42.0918C29.132 42.7535 29.2584 43.3608 29.7372 44.0496C30.4508 45.0647 31.7606 46.3065 33.4499 47.9017C34.1454 46.3246 34.9765 44.9922 35.925 43.9046C37.0089 42.6629 38.2465 41.7384 39.6376 41.113C41.1732 40.4241 42.8625 40.116 44.6962 40.1794C46.5209 40.2338 48.4901 40.6507 50.5949 41.403C51.0014 41.548 51.3085 41.8471 51.4801 42.2097C51.6518 42.5632 51.6789 42.9801 51.5434 43.3789L51.5253 43.4242C51.3808 43.823 51.0827 44.1221 50.7304 44.2853C50.3781 44.4575 49.9626 44.4847 49.5651 44.3487L49.529 44.3396C47.7765 43.7142 46.1776 43.3608 44.7323 43.3064C43.3051 43.2429 42.0224 43.4605 40.8932 43.968C39.7731 44.4665 38.7794 45.2732 37.9032 46.379C37.018 47.5119 36.2682 48.9621 35.654 50.7477C35.5998 50.9018 35.5185 51.0468 35.4281 51.1828C35.3468 51.2915 35.2475 51.3912 35.1391 51.4728L35.121 51.5C35.112 51.5181 35.0849 51.5453 35.0487 51.5816C34.9403 51.6994 34.8139 51.79 34.6874 51.8625C34.57 51.926 34.4525 51.9804 34.3261 52.0076C34.308 52.0166 34.2809 52.0257 34.2538 52.0257H34.2448C32.7453 52.361 31.5981 52.8052 30.7309 53.3762C29.8908 53.9291 29.3307 54.5998 28.9784 55.4155C28.59 56.3219 28.4184 57.4458 28.4093 58.7963C28.4003 60.183 28.5719 61.8054 28.852 63.6997V63.7179C28.861 63.7632 28.861 63.8176 28.861 63.872C29.674 64.8962 30.6225 65.7663 31.6793 66.5095C32.7904 67.289 34.028 67.9234 35.383 68.4401C36.8373 69.002 38.4181 69.419 40.1073 69.7181C41.7965 70.0172 43.5941 70.2075 45.4821 70.3072C45.5724 70.3072 45.6537 70.3253 45.735 70.3435C45.8163 70.3616 45.8976 70.3797 45.9699 70.416C46.9545 70.7241 48.1378 70.8057 49.4838 70.6969C50.8659 70.5882 52.4015 70.28 54.0546 69.8359C55.798 69.3646 57.6498 68.7301 59.5648 68.005C61.4799 67.2799 63.4762 66.4461 65.4906 65.5759L65.5177 65.5669C65.5629 65.5487 65.6171 65.5306 65.6623 65.5125C65.7255 65.4944 65.7797 65.4762 65.8339 65.4672L76.7821 62.6484V56.2856C76.7821 56.2584 76.7821 56.2222 76.7912 56.195V56.1497C76.8815 55.1073 77.0622 54.1647 77.3241 53.3399C77.5951 52.497 77.9474 51.7719 78.39 51.1556C78.8688 50.4848 79.4469 49.9501 80.1154 49.5513C80.7748 49.1615 81.5246 48.9078 82.3556 48.799C82.4098 48.7899 82.4459 48.7809 82.4821 48.7809H82.4911C82.5363 48.7809 82.5724 48.7718 82.6085 48.7718L83.7738 48.7899H83.819C86.3393 48.8262 88.6608 48.8534 90.4132 46.8684C91.3166 45.8533 91.8947 44.7838 92.2289 43.678C92.5631 42.5722 92.6444 41.4302 92.536 40.2791C92.4276 39.0646 92.1115 37.841 91.6779 36.6174C91.2353 35.3847 90.6571 34.1792 90.0248 33.01C89.817 32.6293 89.7899 32.2033 89.8983 31.8227C90.0067 31.442 90.2687 31.0976 90.6481 30.8982H90.6571C91.0275 30.6988 91.4521 30.6625 91.8315 30.7803C92.2108 30.8891 92.5541 31.1519 92.7528 31.5326C93.4665 32.8378 94.1168 34.2245 94.6227 35.6385C95.1376 37.0705 95.4989 38.5389 95.6344 40.0163C95.7699 41.5571 95.6615 43.0979 95.2099 44.6025C94.7582 46.1071 93.9633 47.5663 92.7438 48.944C90.0429 51.9894 87.0258 51.9441 83.7558 51.8988H83.7106C83.5028 51.8988 83.268 51.8897 82.7169 51.8897C82.3285 51.9441 81.9853 52.0619 81.6872 52.2432C81.3891 52.4245 81.1271 52.6601 80.9013 52.9683C80.6393 53.3309 80.4225 53.7931 80.2509 54.3369C80.0792 54.8989 79.9618 55.5424 79.8896 56.2856V61.8326L89.7628 59.2767H89.7809C89.799 59.2676 89.817 59.2676 89.8441 59.2585L101.587 56.9563C102.156 56.5847 102.689 56.1859 103.177 55.769C103.701 55.3249 104.171 54.8717 104.586 54.4004C105.878 52.9592 106.745 51.3459 107.269 49.6238C107.829 47.7657 107.983 45.7717 107.802 43.7414C107.631 41.7746 107.152 39.7715 106.429 37.8047C105.661 35.7019 104.632 33.6445 103.412 31.7048C102.563 30.3543 101.614 29.0582 100.612 27.8527C99.591 26.6382 98.516 25.5143 97.414 24.5173C97.3236 24.4357 97.2423 24.3451 97.1791 24.2545C97.1159 24.1638 97.0617 24.0732 97.0255 23.9735L97.0165 23.9463C96.05 21.5444 94.966 19.2513 93.6381 17.1757C92.3192 15.1092 90.7475 13.2602 88.8144 11.7284C86.8813 10.1966 84.5688 8.97302 81.7323 8.15729C78.8778 7.33249 75.4994 6.91556 71.4706 7.01526C71.3712 7.01526 71.2809 7.01526 71.1996 6.99713C71.1183 6.98807 71.037 6.96088 70.9557 6.94275L70.8112 6.89743C70.0434 7.43219 69.3659 7.99414 68.7787 8.59234C68.1464 9.2268 67.6225 9.87939 67.1889 10.5682C66.7553 11.2661 66.412 11.9912 66.1591 12.7435C65.9062 13.5049 65.7436 14.2934 65.6713 15.1092C65.6352 15.4989 65.4635 15.8343 65.2016 16.088C64.9486 16.3328 64.6234 16.4868 64.2621 16.514C64.235 16.514 64.2079 16.5231 64.1808 16.5231H64.1718C62.7716 16.6047 61.5431 16.9038 60.4772 17.3932C59.348 17.9098 58.3905 18.6349 57.5956 19.5413C56.7646 20.4749 56.0961 21.5988 55.5722 22.8768C55.0211 24.2001 54.6237 25.6865 54.3708 27.2817C54.5424 27.6987 54.6779 28.1337 54.7863 28.5778C54.9037 29.0492 54.994 29.5295 55.0934 30.0099C55.2379 30.7713 55.3915 31.5326 55.6354 32.1308C55.8522 32.6565 56.1503 33.0553 56.611 33.2094C57.0175 33.3454 57.3336 33.6263 57.5053 33.9889C57.6859 34.3424 57.7311 34.7684 57.5956 35.1762C57.4601 35.5841 57.1711 35.9013 56.8188 36.0735C56.4665 36.2548 56.0419 36.3001 55.6354 36.1642L55.5993 36.146C54.2714 35.6929 53.4855 34.859 52.9706 33.8439C52.4738 32.8559 52.257 31.732 52.0402 30.599C51.986 30.309 51.9318 30.028 51.8595 29.7017L51.8505 29.6655C51.8053 29.448 51.7511 29.2304 51.6879 29.031C50.1884 27.8981 48.463 28.2878 46.7919 29.2939C44.9943 30.3725 43.2328 32.1399 41.8236 33.5538C41.5255 33.8529 41.2365 34.143 40.9655 34.4058C40.6945 34.6687 40.4325 34.9224 40.1615 35.1672C39.8454 35.4572 39.4389 35.5841 39.0414 35.566C38.653 35.5478 38.2736 35.3756 37.9936 35.0675C37.9755 35.0493 37.9574 35.0312 37.9484 35.0131C37.6864 34.6959 37.569 34.3061 37.5871 33.9254C37.6051 33.5357 37.7768 33.155 38.0839 32.874C38.102 32.8559 38.12 32.8469 38.1381 32.8287C38.5356 32.4662 39.0595 31.9405 39.6286 31.3695C39.6286 31.3604 39.6557 31.3423 39.6647 31.3332C41.2094 29.7743 43.0973 27.8799 45.184 26.5929C47.1894 25.3602 49.3664 24.7076 51.5705 25.4599C51.8957 23.9372 52.3473 22.5142 52.9254 21.209C53.5487 19.8132 54.3346 18.5534 55.2921 17.4748C56.2768 16.369 57.433 15.4536 58.7699 14.7738C59.9533 14.1756 61.2902 13.7496 62.7807 13.5502C62.9252 12.7888 63.1239 12.0456 63.3949 11.3205C63.7021 10.4867 64.0995 9.68906 64.5873 8.91864C64.9938 8.26605 65.4726 7.64065 66.0055 7.04245C66.3578 6.64365 66.7372 6.26297 67.1437 5.89136C65.6261 5.49255 64.1176 5.12094 62.6181 4.78558C60.8927 4.40491 59.1855 4.07861 57.4962 3.81577L57.433 3.84296C56.873 4.05142 56.349 4.45929 55.8703 5.01218C55.3102 5.6557 54.8044 6.49863 54.3617 7.42313C53.7746 8.65579 53.3139 10.0244 52.9706 11.3296C52.528 12.9973 52.2751 14.5835 52.1847 15.6983C52.1486 16.1243 51.9408 16.505 51.6427 16.7588C51.3446 17.0125 50.9472 17.1576 50.5316 17.1213H50.4955C50.08 17.085 49.7096 16.8766 49.4567 16.5775C49.2038 16.2784 49.0592 15.8796 49.0954 15.4626V15.4264C49.2038 14.1756 49.4928 12.39 49.9897 10.5139C50.3781 9.0274 50.902 7.47751 51.5705 6.07263C51.8957 5.39285 52.248 4.74027 52.6544 4.14206C52.8532 3.84296 53.0519 3.56198 53.2687 3.29913C52.5009 3.23569 51.7421 3.19037 50.9743 3.15411C49.9174 3.1088 48.8605 3.1088 47.8127 3.13599C44.1181 3.24475 40.4506 3.82483 36.7831 5.0303C33.2692 6.19046 29.7643 7.92163 26.2233 10.387C26.6298 10.6498 27.0092 10.9398 27.3795 11.239C27.9306 11.7012 28.4364 12.1997 28.8971 12.7345C29.5385 13.4868 30.0714 14.3206 30.487 15.1998C30.8935 16.0608 31.1735 16.9672 31.318 17.9008C31.3813 18.3268 31.2638 18.7346 31.029 19.0609C30.7941 19.3782 30.4328 19.6138 30.0082 19.6773C29.5836 19.7407 29.1772 19.6229 28.852 19.3872C28.5358 19.1516 28.3009 18.789 28.2377 18.363C28.1383 17.7195 27.9396 17.0941 27.6596 16.4959C27.3705 15.8796 26.9821 15.2904 26.5214 14.7466C26.0517 14.1937 25.5006 13.6862 24.8773 13.242C24.2812 12.816 23.6308 12.4444 22.9352 12.1634C22.2306 12.5441 21.5351 12.9339 20.8666 13.3417C20.1259 13.7859 19.4032 14.2572 18.7077 14.7375C17.7321 15.4173 16.8017 16.1515 15.9164 16.9491C15.1486 17.6379 14.4259 18.3721 13.7575 19.1606C15.4918 20.5836 16.1784 22.0973 16.3048 23.6834C16.4403 25.333 15.9616 27.0279 15.4557 28.8044C15.4557 28.8226 15.4467 28.8407 15.4376 28.8679C14.5253 32.1036 13.5136 35.7291 17.976 39.554C18.3012 39.835 18.4818 40.2247 18.518 40.6145C18.5451 41.0133 18.4276 41.4211 18.1476 41.7474C17.8676 42.0737 17.4792 42.255 17.0907 42.2912C16.6933 42.3184 16.2868 42.2006 15.9616 41.9196C12.9716 39.3637 11.8063 36.8983 11.5353 34.5508C11.2643 32.2215 11.8786 30.0462 12.4567 27.9978C12.8361 26.6563 13.1974 25.3784 13.1342 24.2454C13.08 23.2665 12.6916 22.342 11.6889 21.5081C10.352 23.0218 9.11441 24.5898 8.01235 26.2485C6.83804 28.0159 5.83535 29.8921 5.04043 31.9042C4.15518 34.1611 3.54092 36.6083 3.27896 39.2821C3.01699 41.965 3.10733 44.8925 3.62222 48.1192C3.89321 49.8232 4.20034 51.3368 4.5978 52.6873C4.99527 54.0106 5.48306 55.1889 6.13345 56.2312C6.76577 57.2464 7.56973 58.1618 8.61758 59.0138C9.64736 59.8567 10.9481 60.6453 12.5561 61.3976ZM78.4262 38.4754C80.4225 40.3335 81.0548 41.7474 80.82 43.1523C80.5851 44.5662 79.465 45.8442 77.9745 47.5663C77.2699 48.373 76.466 49.3066 75.6982 50.3489C75.4452 50.6933 75.0749 50.9018 74.6774 50.9652C74.289 51.0196 73.8734 50.929 73.5302 50.6752C73.1869 50.4214 72.9792 50.0498 72.9159 49.651C72.8617 49.2612 72.9521 48.8443 73.205 48.4999C74.1083 47.2854 74.9213 46.3427 75.6259 45.527L75.6349 45.5179C76.5382 44.4756 77.2157 43.6961 77.3783 42.9801C77.5138 42.3728 77.2699 41.7384 76.4298 40.8773L76.0956 41.0042C75.9149 41.0676 75.653 41.1673 75.3459 41.2761C75.0568 41.3758 74.7406 41.4936 74.4154 41.6115C74.0722 41.7384 73.6928 41.8924 73.3043 42.0556C73.1508 42.119 73.0153 42.1825 72.8798 42.2459L72.4462 42.4453C72.121 42.5994 71.7868 42.7535 71.4525 42.8985C71.1002 43.0435 70.748 43.1795 70.3866 43.2883C69.9079 43.4333 69.402 43.5964 68.9774 43.7324L68.9503 43.7414C67.7941 44.104 67.1798 44.3034 66.3307 44.3396C65.8791 44.3578 65.4274 44.3215 64.8583 44.2218C64.2982 44.1312 63.6479 43.9862 62.7536 43.7958L61.8954 43.6145C61.8683 43.6055 61.8502 43.6055 61.8231 43.5964L61.7328 43.5692L58.1376 42.3638C58.1105 42.3547 58.0924 42.3547 58.0744 42.3456C57.6769 42.2097 57.3788 41.9287 57.1981 41.5752C57.0265 41.2308 56.9814 40.8139 57.0988 40.4151L57.1169 40.3607C57.2523 39.9619 57.5324 39.6628 57.8847 39.4815C58.237 39.3093 58.6435 39.264 59.0409 39.3818C59.068 39.3909 59.0861 39.3999 59.1042 39.409L62.5819 40.5691L63.3949 40.7414C64.1898 40.9136 64.777 41.0405 65.2377 41.113C65.6713 41.1855 65.9694 41.2217 66.2133 41.2127C66.6017 41.1945 67.0895 41.0405 68.0019 40.7504C68.2277 40.687 68.4445 40.6054 68.6703 40.5419C68.9413 40.4604 69.2213 40.3697 69.4923 40.2882C70.0434 40.125 70.5854 39.8712 71.1273 39.6174L71.5971 39.3999C71.7597 39.3274 71.9223 39.2549 72.0939 39.1824C73.0514 38.7745 73.747 38.5298 74.307 38.3304C74.8671 38.131 75.1562 38.0313 75.2284 37.8319C75.3459 37.5419 75.3007 36.9255 75.2013 35.6929C75.0929 34.2789 75.0478 33.155 75.12 32.1852C75.1923 31.1882 75.4001 30.3634 75.8065 29.5839C76.204 28.8135 76.755 28.1518 77.5319 27.4902C78.2816 26.8467 79.2392 26.1941 80.4586 25.4146L80.5309 25.3784C80.9103 25.1336 81.1994 24.9614 81.4433 24.8073L81.4884 24.7801C82.184 24.3542 82.5814 24.1094 82.7711 23.765C82.9789 23.4025 83.0331 22.8224 83.0512 21.7166C83.0602 21.0731 83.0873 20.4839 83.1686 19.922C83.2499 19.3329 83.3854 18.789 83.6203 18.2724C83.8913 17.6923 84.2616 17.1847 84.7765 16.7497C85.2824 16.3237 85.9328 15.9793 86.7548 15.7164C87.1613 15.5895 87.5858 15.6349 87.9381 15.8161C88.2904 15.9974 88.5705 16.3237 88.706 16.7316C88.8324 17.1394 88.7873 17.5654 88.6066 17.9189C88.4259 18.2724 88.1007 18.5534 87.6942 18.6893C87.3148 18.8072 87.0348 18.9522 86.8271 19.1063C86.6464 19.2422 86.5199 19.4054 86.4386 19.5776C86.3302 19.8132 86.258 20.1214 86.2218 20.4749C86.1767 20.8646 86.1586 21.2997 86.1496 21.771C86.1134 23.6472 86.005 24.6442 85.5534 25.4146C85.0927 26.2032 84.37 26.6473 83.0783 27.4449L82.6176 27.7259L82.2111 27.9796L82.1208 28.0431C81.091 28.7047 80.296 29.2304 79.7089 29.7108C79.1488 30.164 78.7785 30.5719 78.5617 30.9979C78.3449 31.4238 78.2365 31.9405 78.2003 32.6293C78.1642 33.3544 78.2094 34.2789 78.2997 35.4481C78.3539 36.1914 78.3991 36.7986 78.4262 37.3515C78.4442 37.8047 78.4442 38.1673 78.4262 38.4754ZM60.5856 61.4973C60.9108 61.751 61.1095 62.1045 61.1728 62.4852C61.236 62.875 61.1547 63.2919 60.9018 63.6454L60.8927 63.6544C60.6398 63.9989 60.2785 64.2073 59.89 64.2708C59.5016 64.3342 59.0861 64.2526 58.7338 63.9989C58.508 63.8357 58.3002 63.6635 58.1105 63.4732C57.9118 63.2828 57.7311 63.0744 57.5685 62.8568C57.0807 62.2133 56.7284 61.4701 56.5207 60.6725C56.3039 59.8477 56.2316 58.9594 56.2948 58.0802C56.349 57.2464 56.5297 56.3944 56.8188 55.5877C57.0988 54.7992 57.4872 54.0378 57.975 53.358C58.2008 53.0499 58.4447 52.7508 58.7067 52.4698C58.9687 52.1979 59.2397 51.9532 59.5377 51.7266L59.61 51.6631C60.0436 51.3368 60.5043 51.0468 60.9921 50.793C61.4799 50.5392 61.9948 50.3217 62.5277 50.1404C63.0697 49.9592 63.6298 49.8051 64.2169 49.6872C64.7951 49.5694 65.4003 49.4878 66.0236 49.4335L66.1501 49.4244H71.57C72.0036 49.4244 72.392 49.5966 72.672 49.8776L72.6991 49.9048C72.9611 50.1857 73.1237 50.5664 73.1237 50.9743C73.1237 51.4093 72.9521 51.7991 72.672 52.0801C72.392 52.361 72.0036 52.5332 71.57 52.5332H66.1952C65.7165 52.5786 65.2558 52.642 64.8041 52.7326C64.3524 52.8233 63.9188 52.9321 63.5214 53.068C63.142 53.1949 62.7716 53.349 62.4284 53.5303C62.0941 53.7025 61.778 53.8928 61.4889 54.1103L61.4257 54.1919C61.2541 54.3279 61.0915 54.4729 60.9379 54.627C60.7753 54.7901 60.6308 54.9714 60.4953 55.1617C60.1791 55.5968 59.9262 56.0953 59.7365 56.621C59.5468 57.1557 59.4293 57.7177 59.3932 58.2706V58.2796C59.3571 58.8144 59.3932 59.331 59.5106 59.7933C59.619 60.2283 59.7907 60.6181 60.0436 60.9444L60.0617 60.9716C60.1339 61.0622 60.2062 61.1438 60.2875 61.2254C60.3688 61.3069 60.4591 61.3794 60.5585 61.4519L60.5856 61.4973ZM36.6566 59.3582C36.2502 59.4579 35.8437 59.3854 35.5004 59.177C35.1571 58.9685 34.8952 58.6331 34.7868 58.2162C34.6784 57.7993 34.7597 57.3823 34.9584 57.0379C35.1662 56.6935 35.5004 56.4306 35.9159 56.3219C39.4479 55.4246 41.5797 55.3611 43.2599 55.9593C44.9582 56.5666 46.1054 57.8083 47.7133 59.5304L47.894 59.7298C48.5534 60.4368 49.0954 61.0078 49.5832 61.4519C50.0439 61.8779 50.4594 62.1952 50.8659 62.4036C51.2543 62.603 51.6789 62.7299 52.2118 62.8024C52.7719 62.884 53.4403 62.9021 54.2714 62.8931C54.696 62.884 55.0844 63.0562 55.3734 63.3281C55.6535 63.6 55.8341 63.9898 55.8432 64.4248V64.4339V64.4792C55.8341 64.8871 55.6715 65.2678 55.4096 65.5397C55.1386 65.8207 54.7502 66.0019 54.3256 66.011H54.3166H54.2804C53.2145 66.0291 52.3473 65.9929 51.5885 65.866C50.7936 65.7391 50.1071 65.5216 49.4477 65.1771C48.8063 64.8508 48.2282 64.4248 47.6139 63.872C47.0177 63.3372 46.3854 62.6755 45.6266 61.8598L45.446 61.6604C44.2445 60.3643 43.3773 59.4307 42.194 59.0138C40.9926 58.5969 39.3937 58.6603 36.6928 59.3492L36.6566 59.3582ZM70.0976 21.5263C69.9982 21.2453 69.8808 20.9824 69.7453 20.7287C69.5646 20.4024 69.3478 20.1033 69.122 19.8495C68.869 19.5594 68.5981 19.3147 68.3361 19.1153C68.0561 18.9069 67.7851 18.7528 67.5412 18.6531C67.1437 18.499 66.8456 18.1908 66.683 17.8283C66.5204 17.4657 66.5023 17.0397 66.6559 16.6409C66.8095 16.2421 67.1166 15.943 67.4779 15.7799C67.8393 15.6167 68.2638 15.5986 68.6613 15.7527C69.131 15.934 69.6369 16.2149 70.1337 16.5775C70.5854 16.9128 71.037 17.3207 71.4525 17.8011C71.7055 18.0911 71.9494 18.4084 72.1662 18.7437C72.2926 18.934 72.4101 19.1334 72.5185 19.3329C72.7262 19.2332 72.943 19.1334 73.1869 19.0247L73.214 19.0156C73.6024 18.8434 74.036 18.6621 74.5238 18.4627C75.0116 18.2633 75.5536 18.0367 76.1769 17.7648C76.7912 17.4929 77.4777 17.1848 78.2545 16.8041C78.643 16.6137 79.0675 16.6047 79.4379 16.7406C79.8173 16.8675 80.1425 17.1485 80.3231 17.5382C80.5128 17.928 80.5219 18.354 80.3864 18.7256C80.2599 19.1063 79.9799 19.4326 79.5915 19.6138C78.8056 19.9945 78.0829 20.3299 77.4325 20.6108C76.8092 20.8827 76.2401 21.1184 75.7252 21.3359C75.7072 21.345 75.6801 21.3541 75.653 21.3631C73.1959 22.3873 72.663 22.623 72.401 25.4781L72.392 25.5778C72.2294 27.2908 72.112 28.6232 71.6422 29.8921C71.1725 31.1791 70.3686 32.3483 68.86 33.6988C68.5439 33.9889 68.1374 34.1158 67.7399 34.0886C67.3424 34.0614 66.954 33.8892 66.6649 33.572C66.3759 33.2547 66.2494 32.8469 66.2765 32.448C66.3036 32.0492 66.4752 31.6595 66.7914 31.3695C67.8573 30.4178 68.4174 29.5839 68.7426 28.6685C69.0768 27.7259 69.1762 26.6654 69.3026 25.3058L69.3117 25.2061C69.393 24.3088 69.4923 23.5747 69.6278 22.9674C69.7543 22.3964 69.9079 21.9251 70.0976 21.5263ZM4.39004 41.5843C4.39004 41.5662 4.39004 41.539 4.39004 41.5208C4.41714 41.113 4.5978 40.7414 4.87783 40.4785C5.1669 40.2066 5.55532 40.0434 5.97085 40.0616C5.98892 40.0616 6.01602 40.0616 6.03408 40.0616C6.44058 40.0888 6.81094 40.27 7.0729 40.551C7.3439 40.8411 7.5065 41.2399 7.48843 41.6659C7.43423 43.3154 7.95816 44.3306 8.79824 45.0466C9.6835 45.7989 10.9481 46.2612 12.2851 46.7506C14.2814 47.4848 16.3952 48.2552 18.1205 49.8504C19.8549 51.4547 21.1647 53.8475 21.4718 57.7721C21.508 58.1981 21.3634 58.6059 21.1015 58.905C20.8395 59.2132 20.4691 59.4126 20.0446 59.4489C19.62 59.4851 19.2135 59.3401 18.9154 59.0773C18.6083 58.8144 18.4096 58.4428 18.3734 58.0168C18.1386 55.062 17.154 53.2765 15.8441 52.0891L15.817 52.0619C14.4982 50.8746 12.809 50.2583 11.2191 49.6782C9.40347 49.0165 7.68716 48.3821 6.41348 47.2219C5.1127 46.0346 4.30874 44.3396 4.39004 41.5843ZM77.0351 65.7935C77.6493 66.0654 78.2726 66.2829 78.923 66.4551C79.9618 66.727 81.0368 66.8902 82.1479 66.9355C83.6745 66.9989 85.2733 66.863 86.9355 66.5548C88.6066 66.2467 90.341 65.7663 92.1295 65.1409C92.536 64.9959 92.9606 65.0321 93.3129 65.2134C93.6742 65.3856 93.9633 65.6938 94.0988 66.1016C94.2433 66.5095 94.2072 66.9355 94.0265 67.289C93.8549 67.6515 93.5478 67.9416 93.1413 68.0775C91.1901 68.7664 89.2751 69.2921 87.4232 69.6274C85.5624 69.9628 83.7558 70.1169 82.0124 70.0443C80.287 69.9718 78.6249 69.6818 77.0531 69.147C75.5356 68.6304 74.0902 67.8962 72.7443 66.9083L67.8122 68.1863C68.8329 69.4371 69.9079 70.5066 71.0551 71.3948C72.3559 72.4009 73.747 73.1532 75.2375 73.6517C76.8634 74.1865 78.6249 74.4131 80.5219 74.2952C82.4369 74.1774 84.4965 73.7061 86.7096 72.8722C87.1071 72.7181 87.5316 72.7453 87.893 72.9085C88.2543 73.0716 88.5524 73.3798 88.706 73.7786C88.8595 74.1774 88.8324 74.6034 88.6698 74.9659C88.5072 75.3285 88.2001 75.6276 87.8026 75.7817C85.2553 76.7515 82.8615 77.2863 80.6122 77.4132C78.3539 77.54 76.2401 77.2681 74.2709 76.6155C72.383 75.9901 70.6305 75.0203 69.0045 73.7423C67.4779 72.5369 66.0597 71.0504 64.7499 69.3102C64.3073 69.4915 63.8556 69.6818 63.3859 69.8721C63.0155 70.0262 62.6361 70.1803 62.2477 70.3344C63.2594 71.7936 64.3163 73.0898 65.4093 74.2227C66.6198 75.4826 67.8664 76.534 69.1491 77.3769C70.3144 78.1383 71.4887 78.7274 72.6811 79.1171C73.8373 79.4978 74.9936 79.7063 76.1498 79.7244L76.2492 79.7063H76.2853C76.3305 79.6972 76.3666 79.6972 76.4027 79.6972C80.3322 79.4887 83.6203 78.9993 86.3212 78.1654C88.995 77.3406 91.1088 76.1805 92.7167 74.6125C94.2252 73.1351 95.3183 71.277 96.059 68.9567C96.7636 66.7452 97.1339 64.1257 97.2333 61.0441L90.4223 62.3764L77.0351 65.7935ZM78.2003 82.6701L79.7812 96.8004C79.8263 97.2174 79.6908 97.6252 79.4469 97.9334C79.203 98.2416 78.8327 98.4591 78.4081 98.5044H78.39C77.9745 98.5497 77.568 98.4138 77.2609 98.1691C76.9538 97.9243 76.737 97.5527 76.6918 97.1267L75.0839 82.7698C73.8463 82.661 72.6178 82.3891 71.4074 81.9631C70.0614 81.4918 68.7336 80.8211 67.4418 79.9691C65.9333 78.9721 64.4518 77.7304 63.0426 76.2439C61.7147 74.8481 60.4501 73.2438 59.2577 71.4492C58.5622 71.703 57.8666 71.9387 57.1891 72.1562C56.3852 72.419 55.6083 72.6456 54.8585 72.8541L54.6418 72.9085C56.06 75.4463 57.6227 77.3678 59.2126 78.9359C60.9108 80.6126 62.6452 81.8816 64.2531 83.0508C66.6378 84.8001 68.7787 86.3681 70.3053 88.6522C71.841 90.9543 72.7262 93.9363 72.5727 98.4863C72.5546 98.9123 72.3739 99.302 72.0849 99.5739C71.7958 99.8459 71.3983 100.009 70.9738 99.9909C70.5492 99.9818 70.1608 99.7915 69.8898 99.5014C69.6188 99.2114 69.4562 98.8126 69.4743 98.3866C69.6007 94.6342 68.869 92.1779 67.6044 90.3018C66.3307 88.4074 64.4879 87.0569 62.4284 85.5614C60.6488 84.2563 58.7248 82.8514 56.8278 80.948C54.9669 79.0809 53.1332 76.7515 51.4801 73.5883C50.3419 73.7695 49.2489 73.8692 48.2282 73.8511C47.1081 73.8421 46.0783 73.697 45.1298 73.4161C43.1425 73.3073 41.2365 73.1079 39.4298 72.7725C37.5961 72.4372 35.8708 71.9749 34.2719 71.3677C32.7182 70.7694 31.2729 70.0353 29.9721 69.1199C28.7345 68.2588 27.6144 67.2527 26.6388 66.0744C25.3561 66.2376 24.1005 66.3464 22.8629 66.3826C21.5441 66.4189 20.2523 66.3826 18.9967 66.2648C17.6237 66.1379 16.2868 65.9022 14.995 65.5669C13.7033 65.2315 12.4477 64.7783 11.2372 64.2164C9.34024 63.3281 7.80459 62.3855 6.53994 61.3522C5.26626 60.3009 4.26358 59.1588 3.45962 57.8718C2.67373 56.6119 2.08657 55.2342 1.62588 53.6934C1.17422 52.1798 0.830958 50.4939 0.523829 48.6087C-0.0452629 45.0919 -0.135595 41.8834 0.153468 38.9377C0.44253 35.9738 1.12905 33.2728 2.11367 30.7713C3.08926 28.2787 4.35391 25.9947 5.83535 23.8647C7.30777 21.7347 8.97891 19.7588 10.7675 17.8645C11.6527 16.7497 12.6193 15.7346 13.64 14.7919C14.6608 13.8584 15.7538 12.9973 16.892 12.1906C18.0121 11.4112 19.1774 10.6861 20.3788 10.0063C21.5712 9.32651 22.7907 8.70111 24.0192 8.11197C27.9667 5.31128 31.8961 3.35352 35.8256 2.06647C39.7641 0.770357 43.7116 0.154024 47.6862 0.0361957C51.6066 -0.0816326 55.5451 0.299044 59.5377 1.00601C63.5033 1.70392 67.5231 2.72812 71.6332 3.91547C75.9782 3.83389 79.6457 4.30521 82.7711 5.23877C85.9328 6.17233 88.5434 7.56815 90.7384 9.30838C92.9154 11.0305 94.6588 13.0698 96.1313 15.3267C97.5766 17.5473 98.7418 19.9582 99.7716 22.478C100.928 23.5384 102.039 24.7167 103.096 25.9856C104.162 27.2727 105.155 28.6413 106.059 30.0734C107.405 32.2124 108.543 34.4965 109.392 36.8258C110.196 39.0374 110.729 41.2852 110.919 43.5058C111.135 45.9439 110.937 48.3458 110.241 50.6208C109.591 52.7326 108.507 54.7176 106.908 56.5122C106.366 57.1104 105.779 57.6905 105.137 58.2253C104.514 58.751 103.837 59.2495 103.096 59.7208C103.006 59.7842 102.906 59.8477 102.798 59.893C102.698 59.9383 102.59 59.9746 102.473 59.9927L100.35 60.4096C100.287 64.0895 99.8529 67.2346 99.0038 69.9084C98.1095 72.7 96.7636 74.9841 94.8756 76.824C93.0509 78.6096 90.7475 79.9419 87.911 80.9027C85.183 81.8091 81.9672 82.3801 78.2003 82.6701Z"/>
</mask>
<path d="M12.5561 61.3976C13.5949 61.887 14.6698 62.2677 15.799 62.5577C16.9191 62.8478 18.0934 63.0562 19.2948 63.165C20.3607 63.2647 21.4628 63.3009 22.5919 63.2738C23.5675 63.2466 24.5793 63.1741 25.6181 63.0562C25.3832 61.2797 25.2658 59.7026 25.3109 58.2887C25.3561 56.7207 25.609 55.3702 26.1149 54.1828C26.5846 53.0861 27.2531 52.1616 28.1654 51.3912C28.9062 50.7568 29.8095 50.2311 30.9025 49.796C30.1889 49.1162 29.5385 48.4999 28.9694 47.9198C28.2467 47.1857 27.6505 46.5149 27.1898 45.8624C26.0336 44.2399 25.6542 42.8351 26.2143 41.3396C26.7472 39.9256 28.1745 38.4845 30.6496 36.7171C31.9232 35.8107 32.4562 35.0131 32.6098 34.2245C32.7724 33.4269 32.5465 32.5659 32.3026 31.6142C32.1671 31.0704 32.0226 30.5084 31.9142 29.9555C31.8058 29.4208 31.7245 28.8679 31.6884 28.2697C30.758 27.3996 29.412 26.2213 27.786 25.469C26.1149 24.6986 24.1276 24.3632 21.9777 25.2786C21.5802 25.4418 21.1557 25.4327 20.7943 25.2877C20.424 25.1336 20.1168 24.8436 19.9543 24.4539C19.7917 24.055 19.8007 23.6381 19.9452 23.2665C20.0988 22.8949 20.3878 22.5867 20.7763 22.4236H20.7853C23.3688 21.3269 25.7174 21.4356 27.7318 22.0792C29.4572 22.632 30.9386 23.5837 32.131 24.5264C32.3478 23.8013 32.6549 23.0308 33.0795 22.2151C33.6305 21.1456 34.3803 19.9945 35.383 18.7437C35.8256 18.1999 36.2592 17.6289 36.6747 17.0216C37.0902 16.4143 37.4787 15.7436 37.831 15.0004C38.1833 14.2481 38.4994 13.3961 38.7523 12.4082C39.0053 11.4112 39.204 10.2873 39.3214 8.98208C39.3576 8.55609 39.5653 8.18448 39.8725 7.92163C40.1796 7.66785 40.5771 7.52283 41.0016 7.55908C41.4262 7.59534 41.7965 7.8038 42.0585 8.11197L42.0856 8.14822C42.3205 8.44733 42.456 8.83707 42.4198 9.254L42.4108 9.29932C42.2753 10.7858 42.0495 12.0819 41.7514 13.233C41.4442 14.4022 41.0739 15.4173 40.6493 16.3237C40.2248 17.2391 39.755 18.0277 39.2763 18.7437C38.7975 19.4507 38.3007 20.0851 37.8129 20.7015C36.7018 22.0882 35.9701 23.3209 35.5094 24.4176C35.0668 25.4781 34.8771 26.4207 34.8319 27.2727C34.8681 27.3996 34.8861 27.5355 34.8771 27.6715C34.8771 27.8074 34.859 27.9434 34.8229 28.0703C34.85 28.5597 34.9132 29.022 35.0036 29.4752C35.1029 29.9737 35.2113 30.4178 35.3288 30.8438C35.7082 32.3121 36.0424 33.6354 35.7624 35.004C35.4733 36.3817 34.57 37.7503 32.4743 39.2458C30.8212 40.4241 29.8637 41.3124 29.4662 42.0918C29.132 42.7535 29.2584 43.3608 29.7372 44.0496C30.4508 45.0647 31.7606 46.3065 33.4499 47.9017C34.1454 46.3246 34.9765 44.9922 35.925 43.9046C37.0089 42.6629 38.2465 41.7384 39.6376 41.113C41.1732 40.4241 42.8625 40.116 44.6962 40.1794C46.5209 40.2338 48.4901 40.6507 50.5949 41.403C51.0014 41.548 51.3085 41.8471 51.4801 42.2097C51.6518 42.5632 51.6789 42.9801 51.5434 43.3789L51.5253 43.4242C51.3808 43.823 51.0827 44.1221 50.7304 44.2853C50.3781 44.4575 49.9626 44.4847 49.5651 44.3487L49.529 44.3396C47.7765 43.7142 46.1776 43.3608 44.7323 43.3064C43.3051 43.2429 42.0224 43.4605 40.8932 43.968C39.7731 44.4665 38.7794 45.2732 37.9032 46.379C37.018 47.5119 36.2682 48.9621 35.654 50.7477C35.5998 50.9018 35.5185 51.0468 35.4281 51.1828C35.3468 51.2915 35.2475 51.3912 35.1391 51.4728L35.121 51.5C35.112 51.5181 35.0849 51.5453 35.0487 51.5816C34.9403 51.6994 34.8139 51.79 34.6874 51.8625C34.57 51.926 34.4525 51.9804 34.3261 52.0076C34.308 52.0166 34.2809 52.0257 34.2538 52.0257H34.2448C32.7453 52.361 31.5981 52.8052 30.7309 53.3762C29.8908 53.9291 29.3307 54.5998 28.9784 55.4155C28.59 56.3219 28.4184 57.4458 28.4093 58.7963C28.4003 60.183 28.5719 61.8054 28.852 63.6997V63.7179C28.861 63.7632 28.861 63.8176 28.861 63.872C29.674 64.8962 30.6225 65.7663 31.6793 66.5095C32.7904 67.289 34.028 67.9234 35.383 68.4401C36.8373 69.002 38.4181 69.419 40.1073 69.7181C41.7965 70.0172 43.5941 70.2075 45.4821 70.3072C45.5724 70.3072 45.6537 70.3253 45.735 70.3435C45.8163 70.3616 45.8976 70.3797 45.9699 70.416C46.9545 70.7241 48.1378 70.8057 49.4838 70.6969C50.8659 70.5882 52.4015 70.28 54.0546 69.8359C55.798 69.3646 57.6498 68.7301 59.5648 68.005C61.4799 67.2799 63.4762 66.4461 65.4906 65.5759L65.5177 65.5669C65.5629 65.5487 65.6171 65.5306 65.6623 65.5125C65.7255 65.4944 65.7797 65.4762 65.8339 65.4672L76.7821 62.6484V56.2856C76.7821 56.2584 76.7821 56.2222 76.7912 56.195V56.1497C76.8815 55.1073 77.0622 54.1647 77.3241 53.3399C77.5951 52.497 77.9474 51.7719 78.39 51.1556C78.8688 50.4848 79.4469 49.9501 80.1154 49.5513C80.7748 49.1615 81.5246 48.9078 82.3556 48.799C82.4098 48.7899 82.4459 48.7809 82.4821 48.7809H82.4911C82.5363 48.7809 82.5724 48.7718 82.6085 48.7718L83.7738 48.7899H83.819C86.3393 48.8262 88.6608 48.8534 90.4132 46.8684C91.3166 45.8533 91.8947 44.7838 92.2289 43.678C92.5631 42.5722 92.6444 41.4302 92.536 40.2791C92.4276 39.0646 92.1115 37.841 91.6779 36.6174C91.2353 35.3847 90.6571 34.1792 90.0248 33.01C89.817 32.6293 89.7899 32.2033 89.8983 31.8227C90.0067 31.442 90.2687 31.0976 90.6481 30.8982H90.6571C91.0275 30.6988 91.4521 30.6625 91.8315 30.7803C92.2108 30.8891 92.5541 31.1519 92.7528 31.5326C93.4665 32.8378 94.1168 34.2245 94.6227 35.6385C95.1376 37.0705 95.4989 38.5389 95.6344 40.0163C95.7699 41.5571 95.6615 43.0979 95.2099 44.6025C94.7582 46.1071 93.9633 47.5663 92.7438 48.944C90.0429 51.9894 87.0258 51.9441 83.7558 51.8988H83.7106C83.5028 51.8988 83.268 51.8897 82.7169 51.8897C82.3285 51.9441 81.9853 52.0619 81.6872 52.2432C81.3891 52.4245 81.1271 52.6601 80.9013 52.9683C80.6393 53.3309 80.4225 53.7931 80.2509 54.3369C80.0792 54.8989 79.9618 55.5424 79.8896 56.2856V61.8326L89.7628 59.2767H89.7809C89.799 59.2676 89.817 59.2676 89.8441 59.2585L101.587 56.9563C102.156 56.5847 102.689 56.1859 103.177 55.769C103.701 55.3249 104.171 54.8717 104.586 54.4004C105.878 52.9592 106.745 51.3459 107.269 49.6238C107.829 47.7657 107.983 45.7717 107.802 43.7414C107.631 41.7746 107.152 39.7715 106.429 37.8047C105.661 35.7019 104.632 33.6445 103.412 31.7048C102.563 30.3543 101.614 29.0582 100.612 27.8527C99.591 26.6382 98.516 25.5143 97.414 24.5173C97.3236 24.4357 97.2423 24.3451 97.1791 24.2545C97.1159 24.1638 97.0617 24.0732 97.0255 23.9735L97.0165 23.9463C96.05 21.5444 94.966 19.2513 93.6381 17.1757C92.3192 15.1092 90.7475 13.2602 88.8144 11.7284C86.8813 10.1966 84.5688 8.97302 81.7323 8.15729C78.8778 7.33249 75.4994 6.91556 71.4706 7.01526C71.3712 7.01526 71.2809 7.01526 71.1996 6.99713C71.1183 6.98807 71.037 6.96088 70.9557 6.94275L70.8112 6.89743C70.0434 7.43219 69.3659 7.99414 68.7787 8.59234C68.1464 9.2268 67.6225 9.87939 67.1889 10.5682C66.7553 11.2661 66.412 11.9912 66.1591 12.7435C65.9062 13.5049 65.7436 14.2934 65.6713 15.1092C65.6352 15.4989 65.4635 15.8343 65.2016 16.088C64.9486 16.3328 64.6234 16.4868 64.2621 16.514C64.235 16.514 64.2079 16.5231 64.1808 16.5231H64.1718C62.7716 16.6047 61.5431 16.9038 60.4772 17.3932C59.348 17.9098 58.3905 18.6349 57.5956 19.5413C56.7646 20.4749 56.0961 21.5988 55.5722 22.8768C55.0211 24.2001 54.6237 25.6865 54.3708 27.2817C54.5424 27.6987 54.6779 28.1337 54.7863 28.5778C54.9037 29.0492 54.994 29.5295 55.0934 30.0099C55.2379 30.7713 55.3915 31.5326 55.6354 32.1308C55.8522 32.6565 56.1503 33.0553 56.611 33.2094C57.0175 33.3454 57.3336 33.6263 57.5053 33.9889C57.6859 34.3424 57.7311 34.7684 57.5956 35.1762C57.4601 35.5841 57.1711 35.9013 56.8188 36.0735C56.4665 36.2548 56.0419 36.3001 55.6354 36.1642L55.5993 36.146C54.2714 35.6929 53.4855 34.859 52.9706 33.8439C52.4738 32.8559 52.257 31.732 52.0402 30.599C51.986 30.309 51.9318 30.028 51.8595 29.7017L51.8505 29.6655C51.8053 29.448 51.7511 29.2304 51.6879 29.031C50.1884 27.8981 48.463 28.2878 46.7919 29.2939C44.9943 30.3725 43.2328 32.1399 41.8236 33.5538C41.5255 33.8529 41.2365 34.143 40.9655 34.4058C40.6945 34.6687 40.4325 34.9224 40.1615 35.1672C39.8454 35.4572 39.4389 35.5841 39.0414 35.566C38.653 35.5478 38.2736 35.3756 37.9936 35.0675C37.9755 35.0493 37.9574 35.0312 37.9484 35.0131C37.6864 34.6959 37.569 34.3061 37.5871 33.9254C37.6051 33.5357 37.7768 33.155 38.0839 32.874C38.102 32.8559 38.12 32.8469 38.1381 32.8287C38.5356 32.4662 39.0595 31.9405 39.6286 31.3695C39.6286 31.3604 39.6557 31.3423 39.6647 31.3332C41.2094 29.7743 43.0973 27.8799 45.184 26.5929C47.1894 25.3602 49.3664 24.7076 51.5705 25.4599C51.8957 23.9372 52.3473 22.5142 52.9254 21.209C53.5487 19.8132 54.3346 18.5534 55.2921 17.4748C56.2768 16.369 57.433 15.4536 58.7699 14.7738C59.9533 14.1756 61.2902 13.7496 62.7807 13.5502C62.9252 12.7888 63.1239 12.0456 63.3949 11.3205C63.7021 10.4867 64.0995 9.68906 64.5873 8.91864C64.9938 8.26605 65.4726 7.64065 66.0055 7.04245C66.3578 6.64365 66.7372 6.26297 67.1437 5.89136C65.6261 5.49255 64.1176 5.12094 62.6181 4.78558C60.8927 4.40491 59.1855 4.07861 57.4962 3.81577L57.433 3.84296C56.873 4.05142 56.349 4.45929 55.8703 5.01218C55.3102 5.6557 54.8044 6.49863 54.3617 7.42313C53.7746 8.65579 53.3139 10.0244 52.9706 11.3296C52.528 12.9973 52.2751 14.5835 52.1847 15.6983C52.1486 16.1243 51.9408 16.505 51.6427 16.7588C51.3446 17.0125 50.9472 17.1576 50.5316 17.1213H50.4955C50.08 17.085 49.7096 16.8766 49.4567 16.5775C49.2038 16.2784 49.0592 15.8796 49.0954 15.4626V15.4264C49.2038 14.1756 49.4928 12.39 49.9897 10.5139C50.3781 9.0274 50.902 7.47751 51.5705 6.07263C51.8957 5.39285 52.248 4.74027 52.6544 4.14206C52.8532 3.84296 53.0519 3.56198 53.2687 3.29913C52.5009 3.23569 51.7421 3.19037 50.9743 3.15411C49.9174 3.1088 48.8605 3.1088 47.8127 3.13599C44.1181 3.24475 40.4506 3.82483 36.7831 5.0303C33.2692 6.19046 29.7643 7.92163 26.2233 10.387C26.6298 10.6498 27.0092 10.9398 27.3795 11.239C27.9306 11.7012 28.4364 12.1997 28.8971 12.7345C29.5385 13.4868 30.0714 14.3206 30.487 15.1998C30.8935 16.0608 31.1735 16.9672 31.318 17.9008C31.3813 18.3268 31.2638 18.7346 31.029 19.0609C30.7941 19.3782 30.4328 19.6138 30.0082 19.6773C29.5836 19.7407 29.1772 19.6229 28.852 19.3872C28.5358 19.1516 28.3009 18.789 28.2377 18.363C28.1383 17.7195 27.9396 17.0941 27.6596 16.4959C27.3705 15.8796 26.9821 15.2904 26.5214 14.7466C26.0517 14.1937 25.5006 13.6862 24.8773 13.242C24.2812 12.816 23.6308 12.4444 22.9352 12.1634C22.2306 12.5441 21.5351 12.9339 20.8666 13.3417C20.1259 13.7859 19.4032 14.2572 18.7077 14.7375C17.7321 15.4173 16.8017 16.1515 15.9164 16.9491C15.1486 17.6379 14.4259 18.3721 13.7575 19.1606C15.4918 20.5836 16.1784 22.0973 16.3048 23.6834C16.4403 25.333 15.9616 27.0279 15.4557 28.8044C15.4557 28.8226 15.4467 28.8407 15.4376 28.8679C14.5253 32.1036 13.5136 35.7291 17.976 39.554C18.3012 39.835 18.4818 40.2247 18.518 40.6145C18.5451 41.0133 18.4276 41.4211 18.1476 41.7474C17.8676 42.0737 17.4792 42.255 17.0907 42.2912C16.6933 42.3184 16.2868 42.2006 15.9616 41.9196C12.9716 39.3637 11.8063 36.8983 11.5353 34.5508C11.2643 32.2215 11.8786 30.0462 12.4567 27.9978C12.8361 26.6563 13.1974 25.3784 13.1342 24.2454C13.08 23.2665 12.6916 22.342 11.6889 21.5081C10.352 23.0218 9.11441 24.5898 8.01235 26.2485C6.83804 28.0159 5.83535 29.8921 5.04043 31.9042C4.15518 34.1611 3.54092 36.6083 3.27896 39.2821C3.01699 41.965 3.10733 44.8925 3.62222 48.1192C3.89321 49.8232 4.20034 51.3368 4.5978 52.6873C4.99527 54.0106 5.48306 55.1889 6.13345 56.2312C6.76577 57.2464 7.56973 58.1618 8.61758 59.0138C9.64736 59.8567 10.9481 60.6453 12.5561 61.3976ZM78.4262 38.4754C80.4225 40.3335 81.0548 41.7474 80.82 43.1523C80.5851 44.5662 79.465 45.8442 77.9745 47.5663C77.2699 48.373 76.466 49.3066 75.6982 50.3489C75.4452 50.6933 75.0749 50.9018 74.6774 50.9652C74.289 51.0196 73.8734 50.929 73.5302 50.6752C73.1869 50.4214 72.9792 50.0498 72.9159 49.651C72.8617 49.2612 72.9521 48.8443 73.205 48.4999C74.1083 47.2854 74.9213 46.3427 75.6259 45.527L75.6349 45.5179C76.5382 44.4756 77.2157 43.6961 77.3783 42.9801C77.5138 42.3728 77.2699 41.7384 76.4298 40.8773L76.0956 41.0042C75.9149 41.0676 75.653 41.1673 75.3459 41.2761C75.0568 41.3758 74.7406 41.4936 74.4154 41.6115C74.0722 41.7384 73.6928 41.8924 73.3043 42.0556C73.1508 42.119 73.0153 42.1825 72.8798 42.2459L72.4462 42.4453C72.121 42.5994 71.7868 42.7535 71.4525 42.8985C71.1002 43.0435 70.748 43.1795 70.3866 43.2883C69.9079 43.4333 69.402 43.5964 68.9774 43.7324L68.9503 43.7414C67.7941 44.104 67.1798 44.3034 66.3307 44.3396C65.8791 44.3578 65.4274 44.3215 64.8583 44.2218C64.2982 44.1312 63.6479 43.9862 62.7536 43.7958L61.8954 43.6145C61.8683 43.6055 61.8502 43.6055 61.8231 43.5964L61.7328 43.5692L58.1376 42.3638C58.1105 42.3547 58.0924 42.3547 58.0744 42.3456C57.6769 42.2097 57.3788 41.9287 57.1981 41.5752C57.0265 41.2308 56.9814 40.8139 57.0988 40.4151L57.1169 40.3607C57.2523 39.9619 57.5324 39.6628 57.8847 39.4815C58.237 39.3093 58.6435 39.264 59.0409 39.3818C59.068 39.3909 59.0861 39.3999 59.1042 39.409L62.5819 40.5691L63.3949 40.7414C64.1898 40.9136 64.777 41.0405 65.2377 41.113C65.6713 41.1855 65.9694 41.2217 66.2133 41.2127C66.6017 41.1945 67.0895 41.0405 68.0019 40.7504C68.2277 40.687 68.4445 40.6054 68.6703 40.5419C68.9413 40.4604 69.2213 40.3697 69.4923 40.2882C70.0434 40.125 70.5854 39.8712 71.1273 39.6174L71.5971 39.3999C71.7597 39.3274 71.9223 39.2549 72.0939 39.1824C73.0514 38.7745 73.747 38.5298 74.307 38.3304C74.8671 38.131 75.1562 38.0313 75.2284 37.8319C75.3459 37.5419 75.3007 36.9255 75.2013 35.6929C75.0929 34.2789 75.0478 33.155 75.12 32.1852C75.1923 31.1882 75.4001 30.3634 75.8065 29.5839C76.204 28.8135 76.755 28.1518 77.5319 27.4902C78.2816 26.8467 79.2392 26.1941 80.4586 25.4146L80.5309 25.3784C80.9103 25.1336 81.1994 24.9614 81.4433 24.8073L81.4884 24.7801C82.184 24.3542 82.5814 24.1094 82.7711 23.765C82.9789 23.4025 83.0331 22.8224 83.0512 21.7166C83.0602 21.0731 83.0873 20.4839 83.1686 19.922C83.2499 19.3329 83.3854 18.789 83.6203 18.2724C83.8913 17.6923 84.2616 17.1847 84.7765 16.7497C85.2824 16.3237 85.9328 15.9793 86.7548 15.7164C87.1613 15.5895 87.5858 15.6349 87.9381 15.8161C88.2904 15.9974 88.5705 16.3237 88.706 16.7316C88.8324 17.1394 88.7873 17.5654 88.6066 17.9189C88.4259 18.2724 88.1007 18.5534 87.6942 18.6893C87.3148 18.8072 87.0348 18.9522 86.8271 19.1063C86.6464 19.2422 86.5199 19.4054 86.4386 19.5776C86.3302 19.8132 86.258 20.1214 86.2218 20.4749C86.1767 20.8646 86.1586 21.2997 86.1496 21.771C86.1134 23.6472 86.005 24.6442 85.5534 25.4146C85.0927 26.2032 84.37 26.6473 83.0783 27.4449L82.6176 27.7259L82.2111 27.9796L82.1208 28.0431C81.091 28.7047 80.296 29.2304 79.7089 29.7108C79.1488 30.164 78.7785 30.5719 78.5617 30.9979C78.3449 31.4238 78.2365 31.9405 78.2003 32.6293C78.1642 33.3544 78.2094 34.2789 78.2997 35.4481C78.3539 36.1914 78.3991 36.7986 78.4262 37.3515C78.4442 37.8047 78.4442 38.1673 78.4262 38.4754ZM60.5856 61.4973C60.9108 61.751 61.1095 62.1045 61.1728 62.4852C61.236 62.875 61.1547 63.2919 60.9018 63.6454L60.8927 63.6544C60.6398 63.9989 60.2785 64.2073 59.89 64.2708C59.5016 64.3342 59.0861 64.2526 58.7338 63.9989C58.508 63.8357 58.3002 63.6635 58.1105 63.4732C57.9118 63.2828 57.7311 63.0744 57.5685 62.8568C57.0807 62.2133 56.7284 61.4701 56.5207 60.6725C56.3039 59.8477 56.2316 58.9594 56.2948 58.0802C56.349 57.2464 56.5297 56.3944 56.8188 55.5877C57.0988 54.7992 57.4872 54.0378 57.975 53.358C58.2008 53.0499 58.4447 52.7508 58.7067 52.4698C58.9687 52.1979 59.2397 51.9532 59.5377 51.7266L59.61 51.6631C60.0436 51.3368 60.5043 51.0468 60.9921 50.793C61.4799 50.5392 61.9948 50.3217 62.5277 50.1404C63.0697 49.9592 63.6298 49.8051 64.2169 49.6872C64.7951 49.5694 65.4003 49.4878 66.0236 49.4335L66.1501 49.4244H71.57C72.0036 49.4244 72.392 49.5966 72.672 49.8776L72.6991 49.9048C72.9611 50.1857 73.1237 50.5664 73.1237 50.9743C73.1237 51.4093 72.9521 51.7991 72.672 52.0801C72.392 52.361 72.0036 52.5332 71.57 52.5332H66.1952C65.7165 52.5786 65.2558 52.642 64.8041 52.7326C64.3524 52.8233 63.9188 52.9321 63.5214 53.068C63.142 53.1949 62.7716 53.349 62.4284 53.5303C62.0941 53.7025 61.778 53.8928 61.4889 54.1103L61.4257 54.1919C61.2541 54.3279 61.0915 54.4729 60.9379 54.627C60.7753 54.7901 60.6308 54.9714 60.4953 55.1617C60.1791 55.5968 59.9262 56.0953 59.7365 56.621C59.5468 57.1557 59.4293 57.7177 59.3932 58.2706V58.2796C59.3571 58.8144 59.3932 59.331 59.5106 59.7933C59.619 60.2283 59.7907 60.6181 60.0436 60.9444L60.0617 60.9716C60.1339 61.0622 60.2062 61.1438 60.2875 61.2254C60.3688 61.3069 60.4591 61.3794 60.5585 61.4519L60.5856 61.4973ZM36.6566 59.3582C36.2502 59.4579 35.8437 59.3854 35.5004 59.177C35.1571 58.9685 34.8952 58.6331 34.7868 58.2162C34.6784 57.7993 34.7597 57.3823 34.9584 57.0379C35.1662 56.6935 35.5004 56.4306 35.9159 56.3219C39.4479 55.4246 41.5797 55.3611 43.2599 55.9593C44.9582 56.5666 46.1054 57.8083 47.7133 59.5304L47.894 59.7298C48.5534 60.4368 49.0954 61.0078 49.5832 61.4519C50.0439 61.8779 50.4594 62.1952 50.8659 62.4036C51.2543 62.603 51.6789 62.7299 52.2118 62.8024C52.7719 62.884 53.4403 62.9021 54.2714 62.8931C54.696 62.884 55.0844 63.0562 55.3734 63.3281C55.6535 63.6 55.8341 63.9898 55.8432 64.4248V64.4339V64.4792C55.8341 64.8871 55.6715 65.2678 55.4096 65.5397C55.1386 65.8207 54.7502 66.0019 54.3256 66.011H54.3166H54.2804C53.2145 66.0291 52.3473 65.9929 51.5885 65.866C50.7936 65.7391 50.1071 65.5216 49.4477 65.1771C48.8063 64.8508 48.2282 64.4248 47.6139 63.872C47.0177 63.3372 46.3854 62.6755 45.6266 61.8598L45.446 61.6604C44.2445 60.3643 43.3773 59.4307 42.194 59.0138C40.9926 58.5969 39.3937 58.6603 36.6928 59.3492L36.6566 59.3582ZM70.0976 21.5263C69.9982 21.2453 69.8808 20.9824 69.7453 20.7287C69.5646 20.4024 69.3478 20.1033 69.122 19.8495C68.869 19.5594 68.5981 19.3147 68.3361 19.1153C68.0561 18.9069 67.7851 18.7528 67.5412 18.6531C67.1437 18.499 66.8456 18.1908 66.683 17.8283C66.5204 17.4657 66.5023 17.0397 66.6559 16.6409C66.8095 16.2421 67.1166 15.943 67.4779 15.7799C67.8393 15.6167 68.2638 15.5986 68.6613 15.7527C69.131 15.934 69.6369 16.2149 70.1337 16.5775C70.5854 16.9128 71.037 17.3207 71.4525 17.8011C71.7055 18.0911 71.9494 18.4084 72.1662 18.7437C72.2926 18.934 72.4101 19.1334 72.5185 19.3329C72.7262 19.2332 72.943 19.1334 73.1869 19.0247L73.214 19.0156C73.6024 18.8434 74.036 18.6621 74.5238 18.4627C75.0116 18.2633 75.5536 18.0367 76.1769 17.7648C76.7912 17.4929 77.4777 17.1848 78.2545 16.8041C78.643 16.6137 79.0675 16.6047 79.4379 16.7406C79.8173 16.8675 80.1425 17.1485 80.3231 17.5382C80.5128 17.928 80.5219 18.354 80.3864 18.7256C80.2599 19.1063 79.9799 19.4326 79.5915 19.6138C78.8056 19.9945 78.0829 20.3299 77.4325 20.6108C76.8092 20.8827 76.2401 21.1184 75.7252 21.3359C75.7072 21.345 75.6801 21.3541 75.653 21.3631C73.1959 22.3873 72.663 22.623 72.401 25.4781L72.392 25.5778C72.2294 27.2908 72.112 28.6232 71.6422 29.8921C71.1725 31.1791 70.3686 32.3483 68.86 33.6988C68.5439 33.9889 68.1374 34.1158 67.7399 34.0886C67.3424 34.0614 66.954 33.8892 66.6649 33.572C66.3759 33.2547 66.2494 32.8469 66.2765 32.448C66.3036 32.0492 66.4752 31.6595 66.7914 31.3695C67.8573 30.4178 68.4174 29.5839 68.7426 28.6685C69.0768 27.7259 69.1762 26.6654 69.3026 25.3058L69.3117 25.2061C69.393 24.3088 69.4923 23.5747 69.6278 22.9674C69.7543 22.3964 69.9079 21.9251 70.0976 21.5263ZM4.39004 41.5843C4.39004 41.5662 4.39004 41.539 4.39004 41.5208C4.41714 41.113 4.5978 40.7414 4.87783 40.4785C5.1669 40.2066 5.55532 40.0434 5.97085 40.0616C5.98892 40.0616 6.01602 40.0616 6.03408 40.0616C6.44058 40.0888 6.81094 40.27 7.0729 40.551C7.3439 40.8411 7.5065 41.2399 7.48843 41.6659C7.43423 43.3154 7.95816 44.3306 8.79824 45.0466C9.6835 45.7989 10.9481 46.2612 12.2851 46.7506C14.2814 47.4848 16.3952 48.2552 18.1205 49.8504C19.8549 51.4547 21.1647 53.8475 21.4718 57.7721C21.508 58.1981 21.3634 58.6059 21.1015 58.905C20.8395 59.2132 20.4691 59.4126 20.0446 59.4489C19.62 59.4851 19.2135 59.3401 18.9154 59.0773C18.6083 58.8144 18.4096 58.4428 18.3734 58.0168C18.1386 55.062 17.154 53.2765 15.8441 52.0891L15.817 52.0619C14.4982 50.8746 12.809 50.2583 11.2191 49.6782C9.40347 49.0165 7.68716 48.3821 6.41348 47.2219C5.1127 46.0346 4.30874 44.3396 4.39004 41.5843ZM77.0351 65.7935C77.6493 66.0654 78.2726 66.2829 78.923 66.4551C79.9618 66.727 81.0368 66.8902 82.1479 66.9355C83.6745 66.9989 85.2733 66.863 86.9355 66.5548C88.6066 66.2467 90.341 65.7663 92.1295 65.1409C92.536 64.9959 92.9606 65.0321 93.3129 65.2134C93.6742 65.3856 93.9633 65.6938 94.0988 66.1016C94.2433 66.5095 94.2072 66.9355 94.0265 67.289C93.8549 67.6515 93.5478 67.9416 93.1413 68.0775C91.1901 68.7664 89.2751 69.2921 87.4232 69.6274C85.5624 69.9628 83.7558 70.1169 82.0124 70.0443C80.287 69.9718 78.6249 69.6818 77.0531 69.147C75.5356 68.6304 74.0902 67.8962 72.7443 66.9083L67.8122 68.1863C68.8329 69.4371 69.9079 70.5066 71.0551 71.3948C72.3559 72.4009 73.747 73.1532 75.2375 73.6517C76.8634 74.1865 78.6249 74.4131 80.5219 74.2952C82.4369 74.1774 84.4965 73.7061 86.7096 72.8722C87.1071 72.7181 87.5316 72.7453 87.893 72.9085C88.2543 73.0716 88.5524 73.3798 88.706 73.7786C88.8595 74.1774 88.8324 74.6034 88.6698 74.9659C88.5072 75.3285 88.2001 75.6276 87.8026 75.7817C85.2553 76.7515 82.8615 77.2863 80.6122 77.4132C78.3539 77.54 76.2401 77.2681 74.2709 76.6155C72.383 75.9901 70.6305 75.0203 69.0045 73.7423C67.4779 72.5369 66.0597 71.0504 64.7499 69.3102C64.3073 69.4915 63.8556 69.6818 63.3859 69.8721C63.0155 70.0262 62.6361 70.1803 62.2477 70.3344C63.2594 71.7936 64.3163 73.0898 65.4093 74.2227C66.6198 75.4826 67.8664 76.534 69.1491 77.3769C70.3144 78.1383 71.4887 78.7274 72.6811 79.1171C73.8373 79.4978 74.9936 79.7063 76.1498 79.7244L76.2492 79.7063H76.2853C76.3305 79.6972 76.3666 79.6972 76.4027 79.6972C80.3322 79.4887 83.6203 78.9993 86.3212 78.1654C88.995 77.3406 91.1088 76.1805 92.7167 74.6125C94.2252 73.1351 95.3183 71.277 96.059 68.9567C96.7636 66.7452 97.1339 64.1257 97.2333 61.0441L90.4223 62.3764L77.0351 65.7935ZM78.2003 82.6701L79.7812 96.8004C79.8263 97.2174 79.6908 97.6252 79.4469 97.9334C79.203 98.2416 78.8327 98.4591 78.4081 98.5044H78.39C77.9745 98.5497 77.568 98.4138 77.2609 98.1691C76.9538 97.9243 76.737 97.5527 76.6918 97.1267L75.0839 82.7698C73.8463 82.661 72.6178 82.3891 71.4074 81.9631C70.0614 81.4918 68.7336 80.8211 67.4418 79.9691C65.9333 78.9721 64.4518 77.7304 63.0426 76.2439C61.7147 74.8481 60.4501 73.2438 59.2577 71.4492C58.5622 71.703 57.8666 71.9387 57.1891 72.1562C56.3852 72.419 55.6083 72.6456 54.8585 72.8541L54.6418 72.9085C56.06 75.4463 57.6227 77.3678 59.2126 78.9359C60.9108 80.6126 62.6452 81.8816 64.2531 83.0508C66.6378 84.8001 68.7787 86.3681 70.3053 88.6522C71.841 90.9543 72.7262 93.9363 72.5727 98.4863C72.5546 98.9123 72.3739 99.302 72.0849 99.5739C71.7958 99.8459 71.3983 100.009 70.9738 99.9909C70.5492 99.9818 70.1608 99.7915 69.8898 99.5014C69.6188 99.2114 69.4562 98.8126 69.4743 98.3866C69.6007 94.6342 68.869 92.1779 67.6044 90.3018C66.3307 88.4074 64.4879 87.0569 62.4284 85.5614C60.6488 84.2563 58.7248 82.8514 56.8278 80.948C54.9669 79.0809 53.1332 76.7515 51.4801 73.5883C50.3419 73.7695 49.2489 73.8692 48.2282 73.8511C47.1081 73.8421 46.0783 73.697 45.1298 73.4161C43.1425 73.3073 41.2365 73.1079 39.4298 72.7725C37.5961 72.4372 35.8708 71.9749 34.2719 71.3677C32.7182 70.7694 31.2729 70.0353 29.9721 69.1199C28.7345 68.2588 27.6144 67.2527 26.6388 66.0744C25.3561 66.2376 24.1005 66.3464 22.8629 66.3826C21.5441 66.4189 20.2523 66.3826 18.9967 66.2648C17.6237 66.1379 16.2868 65.9022 14.995 65.5669C13.7033 65.2315 12.4477 64.7783 11.2372 64.2164C9.34024 63.3281 7.80459 62.3855 6.53994 61.3522C5.26626 60.3009 4.26358 59.1588 3.45962 57.8718C2.67373 56.6119 2.08657 55.2342 1.62588 53.6934C1.17422 52.1798 0.830958 50.4939 0.523829 48.6087C-0.0452629 45.0919 -0.135595 41.8834 0.153468 38.9377C0.44253 35.9738 1.12905 33.2728 2.11367 30.7713C3.08926 28.2787 4.35391 25.9947 5.83535 23.8647C7.30777 21.7347 8.97891 19.7588 10.7675 17.8645C11.6527 16.7497 12.6193 15.7346 13.64 14.7919C14.6608 13.8584 15.7538 12.9973 16.892 12.1906C18.0121 11.4112 19.1774 10.6861 20.3788 10.0063C21.5712 9.32651 22.7907 8.70111 24.0192 8.11197C27.9667 5.31128 31.8961 3.35352 35.8256 2.06647C39.7641 0.770357 43.7116 0.154024 47.6862 0.0361957C51.6066 -0.0816326 55.5451 0.299044 59.5377 1.00601C63.5033 1.70392 67.5231 2.72812 71.6332 3.91547C75.9782 3.83389 79.6457 4.30521 82.7711 5.23877C85.9328 6.17233 88.5434 7.56815 90.7384 9.30838C92.9154 11.0305 94.6588 13.0698 96.1313 15.3267C97.5766 17.5473 98.7418 19.9582 99.7716 22.478C100.928 23.5384 102.039 24.7167 103.096 25.9856C104.162 27.2727 105.155 28.6413 106.059 30.0734C107.405 32.2124 108.543 34.4965 109.392 36.8258C110.196 39.0374 110.729 41.2852 110.919 43.5058C111.135 45.9439 110.937 48.3458 110.241 50.6208C109.591 52.7326 108.507 54.7176 106.908 56.5122C106.366 57.1104 105.779 57.6905 105.137 58.2253C104.514 58.751 103.837 59.2495 103.096 59.7208C103.006 59.7842 102.906 59.8477 102.798 59.893C102.698 59.9383 102.59 59.9746 102.473 59.9927L100.35 60.4096C100.287 64.0895 99.8529 67.2346 99.0038 69.9084C98.1095 72.7 96.7636 74.9841 94.8756 76.824C93.0509 78.6096 90.7475 79.9419 87.911 80.9027C85.183 81.8091 81.9672 82.3801 78.2003 82.6701Z" fill="white"/>
<path d="M12.5561 61.3976C13.5949 61.887 14.6698 62.2677 15.799 62.5577C16.9191 62.8478 18.0934 63.0562 19.2948 63.165C20.3607 63.2647 21.4628 63.3009 22.5919 63.2738C23.5675 63.2466 24.5793 63.1741 25.6181 63.0562C25.3832 61.2797 25.2658 59.7026 25.3109 58.2887C25.3561 56.7207 25.609 55.3702 26.1149 54.1828C26.5846 53.0861 27.2531 52.1616 28.1654 51.3912C28.9062 50.7568 29.8095 50.2311 30.9025 49.796C30.1889 49.1162 29.5385 48.4999 28.9694 47.9198C28.2467 47.1857 27.6505 46.5149 27.1898 45.8624C26.0336 44.2399 25.6542 42.8351 26.2143 41.3396C26.7472 39.9256 28.1745 38.4845 30.6496 36.7171C31.9232 35.8107 32.4562 35.0131 32.6098 34.2245C32.7724 33.4269 32.5465 32.5659 32.3026 31.6142C32.1671 31.0704 32.0226 30.5084 31.9142 29.9555C31.8058 29.4208 31.7245 28.8679 31.6884 28.2697C30.758 27.3996 29.412 26.2213 27.786 25.469C26.1149 24.6986 24.1276 24.3632 21.9777 25.2786C21.5802 25.4418 21.1557 25.4327 20.7943 25.2877C20.424 25.1336 20.1168 24.8436 19.9543 24.4539C19.7917 24.055 19.8007 23.6381 19.9452 23.2665C20.0988 22.8949 20.3878 22.5867 20.7763 22.4236H20.7853C23.3688 21.3269 25.7174 21.4356 27.7318 22.0792C29.4572 22.632 30.9386 23.5837 32.131 24.5264C32.3478 23.8013 32.6549 23.0308 33.0795 22.2151C33.6305 21.1456 34.3803 19.9945 35.383 18.7437C35.8256 18.1999 36.2592 17.6289 36.6747 17.0216C37.0902 16.4143 37.4787 15.7436 37.831 15.0004C38.1833 14.2481 38.4994 13.3961 38.7523 12.4082C39.0053 11.4112 39.204 10.2873 39.3214 8.98208C39.3576 8.55609 39.5653 8.18448 39.8725 7.92163C40.1796 7.66785 40.5771 7.52283 41.0016 7.55908C41.4262 7.59534 41.7965 7.8038 42.0585 8.11197L42.0856 8.14822C42.3205 8.44733 42.456 8.83707 42.4198 9.254L42.4108 9.29932C42.2753 10.7858 42.0495 12.0819 41.7514 13.233C41.4442 14.4022 41.0739 15.4173 40.6493 16.3237C40.2248 17.2391 39.755 18.0277 39.2763 18.7437C38.7975 19.4507 38.3007 20.0851 37.8129 20.7015C36.7018 22.0882 35.9701 23.3209 35.5094 24.4176C35.0668 25.4781 34.8771 26.4207 34.8319 27.2727C34.8681 27.3996 34.8861 27.5355 34.8771 27.6715C34.8771 27.8074 34.859 27.9434 34.8229 28.0703C34.85 28.5597 34.9132 29.022 35.0036 29.4752C35.1029 29.9737 35.2113 30.4178 35.3288 30.8438C35.7082 32.3121 36.0424 33.6354 35.7624 35.004C35.4733 36.3817 34.57 37.7503 32.4743 39.2458C30.8212 40.4241 29.8637 41.3124 29.4662 42.0918C29.132 42.7535 29.2584 43.3608 29.7372 44.0496C30.4508 45.0647 31.7606 46.3065 33.4499 47.9017C34.1454 46.3246 34.9765 44.9922 35.925 43.9046C37.0089 42.6629 38.2465 41.7384 39.6376 41.113C41.1732 40.4241 42.8625 40.116 44.6962 40.1794C46.5209 40.2338 48.4901 40.6507 50.5949 41.403C51.0014 41.548 51.3085 41.8471 51.4801 42.2097C51.6518 42.5632 51.6789 42.9801 51.5434 43.3789L51.5253 43.4242C51.3808 43.823 51.0827 44.1221 50.7304 44.2853C50.3781 44.4575 49.9626 44.4847 49.5651 44.3487L49.529 44.3396C47.7765 43.7142 46.1776 43.3608 44.7323 43.3064C43.3051 43.2429 42.0224 43.4605 40.8932 43.968C39.7731 44.4665 38.7794 45.2732 37.9032 46.379C37.018 47.5119 36.2682 48.9621 35.654 50.7477C35.5998 50.9018 35.5185 51.0468 35.4281 51.1828C35.3468 51.2915 35.2475 51.3912 35.1391 51.4728L35.121 51.5C35.112 51.5181 35.0849 51.5453 35.0487 51.5816C34.9403 51.6994 34.8139 51.79 34.6874 51.8625C34.57 51.926 34.4525 51.9804 34.3261 52.0076C34.308 52.0166 34.2809 52.0257 34.2538 52.0257H34.2448C32.7453 52.361 31.5981 52.8052 30.7309 53.3762C29.8908 53.9291 29.3307 54.5998 28.9784 55.4155C28.59 56.3219 28.4184 57.4458 28.4093 58.7963C28.4003 60.183 28.5719 61.8054 28.852 63.6997V63.7179C28.861 63.7632 28.861 63.8176 28.861 63.872C29.674 64.8962 30.6225 65.7663 31.6793 66.5095C32.7904 67.289 34.028 67.9234 35.383 68.4401C36.8373 69.002 38.4181 69.419 40.1073 69.7181C41.7965 70.0172 43.5941 70.2075 45.4821 70.3072C45.5724 70.3072 45.6537 70.3253 45.735 70.3435C45.8163 70.3616 45.8976 70.3797 45.9699 70.416C46.9545 70.7241 48.1378 70.8057 49.4838 70.6969C50.8659 70.5882 52.4015 70.28 54.0546 69.8359C55.798 69.3646 57.6498 68.7301 59.5648 68.005C61.4799 67.2799 63.4762 66.4461 65.4906 65.5759L65.5177 65.5669C65.5629 65.5487 65.6171 65.5306 65.6623 65.5125C65.7255 65.4944 65.7797 65.4762 65.8339 65.4672L76.7821 62.6484V56.2856C76.7821 56.2584 76.7821 56.2222 76.7912 56.195V56.1497C76.8815 55.1073 77.0622 54.1647 77.3241 53.3399C77.5951 52.497 77.9474 51.7719 78.39 51.1556C78.8688 50.4848 79.4469 49.9501 80.1154 49.5513C80.7748 49.1615 81.5246 48.9078 82.3556 48.799C82.4098 48.7899 82.4459 48.7809 82.4821 48.7809H82.4911C82.5363 48.7809 82.5724 48.7718 82.6085 48.7718L83.7738 48.7899H83.819C86.3393 48.8262 88.6608 48.8534 90.4132 46.8684C91.3166 45.8533 91.8947 44.7838 92.2289 43.678C92.5631 42.5722 92.6444 41.4302 92.536 40.2791C92.4276 39.0646 92.1115 37.841 91.6779 36.6174C91.2353 35.3847 90.6571 34.1792 90.0248 33.01C89.817 32.6293 89.7899 32.2033 89.8983 31.8227C90.0067 31.442 90.2687 31.0976 90.6481 30.8982H90.6571C91.0275 30.6988 91.4521 30.6625 91.8315 30.7803C92.2108 30.8891 92.5541 31.1519 92.7528 31.5326C93.4665 32.8378 94.1168 34.2245 94.6227 35.6385C95.1376 37.0705 95.4989 38.5389 95.6344 40.0163C95.7699 41.5571 95.6615 43.0979 95.2099 44.6025C94.7582 46.1071 93.9633 47.5663 92.7438 48.944C90.0429 51.9894 87.0258 51.9441 83.7558 51.8988H83.7106C83.5028 51.8988 83.268 51.8897 82.7169 51.8897C82.3285 51.9441 81.9853 52.0619 81.6872 52.2432C81.3891 52.4245 81.1271 52.6601 80.9013 52.9683C80.6393 53.3309 80.4225 53.7931 80.2509 54.3369C80.0792 54.8989 79.9618 55.5424 79.8896 56.2856V61.8326L89.7628 59.2767H89.7809C89.799 59.2676 89.817 59.2676 89.8441 59.2585L101.587 56.9563C102.156 56.5847 102.689 56.1859 103.177 55.769C103.701 55.3249 104.171 54.8717 104.586 54.4004C105.878 52.9592 106.745 51.3459 107.269 49.6238C107.829 47.7657 107.983 45.7717 107.802 43.7414C107.631 41.7746 107.152 39.7715 106.429 37.8047C105.661 35.7019 104.632 33.6445 103.412 31.7048C102.563 30.3543 101.614 29.0582 100.612 27.8527C99.591 26.6382 98.516 25.5143 97.414 24.5173C97.3236 24.4357 97.2423 24.3451 97.1791 24.2545C97.1159 24.1638 97.0617 24.0732 97.0255 23.9735L97.0165 23.9463C96.05 21.5444 94.966 19.2513 93.6381 17.1757C92.3192 15.1092 90.7475 13.2602 88.8144 11.7284C86.8813 10.1966 84.5688 8.97302 81.7323 8.15729C78.8778 7.33249 75.4994 6.91556 71.4706 7.01526C71.3712 7.01526 71.2809 7.01526 71.1996 6.99713C71.1183 6.98807 71.037 6.96088 70.9557 6.94275L70.8112 6.89743C70.0434 7.43219 69.3659 7.99414 68.7787 8.59234C68.1464 9.2268 67.6225 9.87939 67.1889 10.5682C66.7553 11.2661 66.412 11.9912 66.1591 12.7435C65.9062 13.5049 65.7436 14.2934 65.6713 15.1092C65.6352 15.4989 65.4635 15.8343 65.2016 16.088C64.9486 16.3328 64.6234 16.4868 64.2621 16.514C64.235 16.514 64.2079 16.5231 64.1808 16.5231H64.1718C62.7716 16.6047 61.5431 16.9038 60.4772 17.3932C59.348 17.9098 58.3905 18.6349 57.5956 19.5413C56.7646 20.4749 56.0961 21.5988 55.5722 22.8768C55.0211 24.2001 54.6237 25.6865 54.3708 27.2817C54.5424 27.6987 54.6779 28.1337 54.7863 28.5778C54.9037 29.0492 54.994 29.5295 55.0934 30.0099C55.2379 30.7713 55.3915 31.5326 55.6354 32.1308C55.8522 32.6565 56.1503 33.0553 56.611 33.2094C57.0175 33.3454 57.3336 33.6263 57.5053 33.9889C57.6859 34.3424 57.7311 34.7684 57.5956 35.1762C57.4601 35.5841 57.1711 35.9013 56.8188 36.0735C56.4665 36.2548 56.0419 36.3001 55.6354 36.1642L55.5993 36.146C54.2714 35.6929 53.4855 34.859 52.9706 33.8439C52.4738 32.8559 52.257 31.732 52.0402 30.599C51.986 30.309 51.9318 30.028 51.8595 29.7017L51.8505 29.6655C51.8053 29.448 51.7511 29.2304 51.6879 29.031C50.1884 27.8981 48.463 28.2878 46.7919 29.2939C44.9943 30.3725 43.2328 32.1399 41.8236 33.5538C41.5255 33.8529 41.2365 34.143 40.9655 34.4058C40.6945 34.6687 40.4325 34.9224 40.1615 35.1672C39.8454 35.4572 39.4389 35.5841 39.0414 35.566C38.653 35.5478 38.2736 35.3756 37.9936 35.0675C37.9755 35.0493 37.9574 35.0312 37.9484 35.0131C37.6864 34.6959 37.569 34.3061 37.5871 33.9254C37.6051 33.5357 37.7768 33.155 38.0839 32.874C38.102 32.8559 38.12 32.8469 38.1381 32.8287C38.5356 32.4662 39.0595 31.9405 39.6286 31.3695C39.6286 31.3604 39.6557 31.3423 39.6647 31.3332C41.2094 29.7743 43.0973 27.8799 45.184 26.5929C47.1894 25.3602 49.3664 24.7076 51.5705 25.4599C51.8957 23.9372 52.3473 22.5142 52.9254 21.209C53.5487 19.8132 54.3346 18.5534 55.2921 17.4748C56.2768 16.369 57.433 15.4536 58.7699 14.7738C59.9533 14.1756 61.2902 13.7496 62.7807 13.5502C62.9252 12.7888 63.1239 12.0456 63.3949 11.3205C63.7021 10.4867 64.0995 9.68906 64.5873 8.91864C64.9938 8.26605 65.4726 7.64065 66.0055 7.04245C66.3578 6.64365 66.7372 6.26297 67.1437 5.89136C65.6261 5.49255 64.1176 5.12094 62.6181 4.78558C60.8927 4.40491 59.1855 4.07861 57.4962 3.81577L57.433 3.84296C56.873 4.05142 56.349 4.45929 55.8703 5.01218C55.3102 5.6557 54.8044 6.49863 54.3617 7.42313C53.7746 8.65579 53.3139 10.0244 52.9706 11.3296C52.528 12.9973 52.2751 14.5835 52.1847 15.6983C52.1486 16.1243 51.9408 16.505 51.6427 16.7588C51.3446 17.0125 50.9472 17.1576 50.5316 17.1213H50.4955C50.08 17.085 49.7096 16.8766 49.4567 16.5775C49.2038 16.2784 49.0592 15.8796 49.0954 15.4626V15.4264C49.2038 14.1756 49.4928 12.39 49.9897 10.5139C50.3781 9.0274 50.902 7.47751 51.5705 6.07263C51.8957 5.39285 52.248 4.74027 52.6544 4.14206C52.8532 3.84296 53.0519 3.56198 53.2687 3.29913C52.5009 3.23569 51.7421 3.19037 50.9743 3.15411C49.9174 3.1088 48.8605 3.1088 47.8127 3.13599C44.1181 3.24475 40.4506 3.82483 36.7831 5.0303C33.2692 6.19046 29.7643 7.92163 26.2233 10.387C26.6298 10.6498 27.0092 10.9398 27.3795 11.239C27.9306 11.7012 28.4364 12.1997 28.8971 12.7345C29.5385 13.4868 30.0714 14.3206 30.487 15.1998C30.8935 16.0608 31.1735 16.9672 31.318 17.9008C31.3813 18.3268 31.2638 18.7346 31.029 19.0609C30.7941 19.3782 30.4328 19.6138 30.0082 19.6773C29.5836 19.7407 29.1772 19.6229 28.852 19.3872C28.5358 19.1516 28.3009 18.789 28.2377 18.363C28.1383 17.7195 27.9396 17.0941 27.6596 16.4959C27.3705 15.8796 26.9821 15.2904 26.5214 14.7466C26.0517 14.1937 25.5006 13.6862 24.8773 13.242C24.2812 12.816 23.6308 12.4444 22.9352 12.1634C22.2306 12.5441 21.5351 12.9339 20.8666 13.3417C20.1259 13.7859 19.4032 14.2572 18.7077 14.7375C17.7321 15.4173 16.8017 16.1515 15.9164 16.9491C15.1486 17.6379 14.4259 18.3721 13.7575 19.1606C15.4918 20.5836 16.1784 22.0973 16.3048 23.6834C16.4403 25.333 15.9616 27.0279 15.4557 28.8044C15.4557 28.8226 15.4467 28.8407 15.4376 28.8679C14.5253 32.1036 13.5136 35.7291 17.976 39.554C18.3012 39.835 18.4818 40.2247 18.518 40.6145C18.5451 41.0133 18.4276 41.4211 18.1476 41.7474C17.8676 42.0737 17.4792 42.255 17.0907 42.2912C16.6933 42.3184 16.2868 42.2006 15.9616 41.9196C12.9716 39.3637 11.8063 36.8983 11.5353 34.5508C11.2643 32.2215 11.8786 30.0462 12.4567 27.9978C12.8361 26.6563 13.1974 25.3784 13.1342 24.2454C13.08 23.2665 12.6916 22.342 11.6889 21.5081C10.352 23.0218 9.11441 24.5898 8.01235 26.2485C6.83804 28.0159 5.83535 29.8921 5.04043 31.9042C4.15518 34.1611 3.54092 36.6083 3.27896 39.2821C3.01699 41.965 3.10733 44.8925 3.62222 48.1192C3.89321 49.8232 4.20034 51.3368 4.5978 52.6873C4.99527 54.0106 5.48306 55.1889 6.13345 56.2312C6.76577 57.2464 7.56973 58.1618 8.61758 59.0138C9.64736 59.8567 10.9481 60.6453 12.5561 61.3976ZM78.4262 38.4754C80.4225 40.3335 81.0548 41.7474 80.82 43.1523C80.5851 44.5662 79.465 45.8442 77.9745 47.5663C77.2699 48.373 76.466 49.3066 75.6982 50.3489C75.4452 50.6933 75.0749 50.9018 74.6774 50.9652C74.289 51.0196 73.8734 50.929 73.5302 50.6752C73.1869 50.4214 72.9792 50.0498 72.9159 49.651C72.8617 49.2612 72.9521 48.8443 73.205 48.4999C74.1083 47.2854 74.9213 46.3427 75.6259 45.527L75.6349 45.5179C76.5382 44.4756 77.2157 43.6961 77.3783 42.9801C77.5138 42.3728 77.2699 41.7384 76.4298 40.8773L76.0956 41.0042C75.9149 41.0676 75.653 41.1673 75.3459 41.2761C75.0568 41.3758 74.7406 41.4936 74.4154 41.6115C74.0722 41.7384 73.6928 41.8924 73.3043 42.0556C73.1508 42.119 73.0153 42.1825 72.8798 42.2459L72.4462 42.4453C72.121 42.5994 71.7868 42.7535 71.4525 42.8985C71.1002 43.0435 70.748 43.1795 70.3866 43.2883C69.9079 43.4333 69.402 43.5964 68.9774 43.7324L68.9503 43.7414C67.7941 44.104 67.1798 44.3034 66.3307 44.3396C65.8791 44.3578 65.4274 44.3215 64.8583 44.2218C64.2982 44.1312 63.6479 43.9862 62.7536 43.7958L61.8954 43.6145C61.8683 43.6055 61.8502 43.6055 61.8231 43.5964L61.7328 43.5692L58.1376 42.3638C58.1105 42.3547 58.0924 42.3547 58.0744 42.3456C57.6769 42.2097 57.3788 41.9287 57.1981 41.5752C57.0265 41.2308 56.9814 40.8139 57.0988 40.4151L57.1169 40.3607C57.2523 39.9619 57.5324 39.6628 57.8847 39.4815C58.237 39.3093 58.6435 39.264 59.0409 39.3818C59.068 39.3909 59.0861 39.3999 59.1042 39.409L62.5819 40.5691L63.3949 40.7414C64.1898 40.9136 64.777 41.0405 65.2377 41.113C65.6713 41.1855 65.9694 41.2217 66.2133 41.2127C66.6017 41.1945 67.0895 41.0405 68.0019 40.7504C68.2277 40.687 68.4445 40.6054 68.6703 40.5419C68.9413 40.4604 69.2213 40.3697 69.4923 40.2882C70.0434 40.125 70.5854 39.8712 71.1273 39.6174L71.5971 39.3999C71.7597 39.3274 71.9223 39.2549 72.0939 39.1824C73.0514 38.7745 73.747 38.5298 74.307 38.3304C74.8671 38.131 75.1562 38.0313 75.2284 37.8319C75.3459 37.5419 75.3007 36.9255 75.2013 35.6929C75.0929 34.2789 75.0478 33.155 75.12 32.1852C75.1923 31.1882 75.4001 30.3634 75.8065 29.5839C76.204 28.8135 76.755 28.1518 77.5319 27.4902C78.2816 26.8467 79.2392 26.1941 80.4586 25.4146L80.5309 25.3784C80.9103 25.1336 81.1994 24.9614 81.4433 24.8073L81.4884 24.7801C82.184 24.3542 82.5814 24.1094 82.7711 23.765C82.9789 23.4025 83.0331 22.8224 83.0512 21.7166C83.0602 21.0731 83.0873 20.4839 83.1686 19.922C83.2499 19.3329 83.3854 18.789 83.6203 18.2724C83.8913 17.6923 84.2616 17.1847 84.7765 16.7497C85.2824 16.3237 85.9328 15.9793 86.7548 15.7164C87.1613 15.5895 87.5858 15.6349 87.9381 15.8161C88.2904 15.9974 88.5705 16.3237 88.706 16.7316C88.8324 17.1394 88.7873 17.5654 88.6066 17.9189C88.4259 18.2724 88.1007 18.5534 87.6942 18.6893C87.3148 18.8072 87.0348 18.9522 86.8271 19.1063C86.6464 19.2422 86.5199 19.4054 86.4386 19.5776C86.3302 19.8132 86.258 20.1214 86.2218 20.4749C86.1767 20.8646 86.1586 21.2997 86.1496 21.771C86.1134 23.6472 86.005 24.6442 85.5534 25.4146C85.0927 26.2032 84.37 26.6473 83.0783 27.4449L82.6176 27.7259L82.2111 27.9796L82.1208 28.0431C81.091 28.7047 80.296 29.2304 79.7089 29.7108C79.1488 30.164 78.7785 30.5719 78.5617 30.9979C78.3449 31.4238 78.2365 31.9405 78.2003 32.6293C78.1642 33.3544 78.2094 34.2789 78.2997 35.4481C78.3539 36.1914 78.3991 36.7986 78.4262 37.3515C78.4442 37.8047 78.4442 38.1673 78.4262 38.4754ZM60.5856 61.4973C60.9108 61.751 61.1095 62.1045 61.1728 62.4852C61.236 62.875 61.1547 63.2919 60.9018 63.6454L60.8927 63.6544C60.6398 63.9989 60.2785 64.2073 59.89 64.2708C59.5016 64.3342 59.0861 64.2526 58.7338 63.9989C58.508 63.8357 58.3002 63.6635 58.1105 63.4732C57.9118 63.2828 57.7311 63.0744 57.5685 62.8568C57.0807 62.2133 56.7284 61.4701 56.5207 60.6725C56.3039 59.8477 56.2316 58.9594 56.2948 58.0802C56.349 57.2464 56.5297 56.3944 56.8188 55.5877C57.0988 54.7992 57.4872 54.0378 57.975 53.358C58.2008 53.0499 58.4447 52.7508 58.7067 52.4698C58.9687 52.1979 59.2397 51.9532 59.5377 51.7266L59.61 51.6631C60.0436 51.3368 60.5043 51.0468 60.9921 50.793C61.4799 50.5392 61.9948 50.3217 62.5277 50.1404C63.0697 49.9592 63.6298 49.8051 64.2169 49.6872C64.7951 49.5694 65.4003 49.4878 66.0236 49.4335L66.1501 49.4244H71.57C72.0036 49.4244 72.392 49.5966 72.672 49.8776L72.6991 49.9048C72.9611 50.1857 73.1237 50.5664 73.1237 50.9743C73.1237 51.4093 72.9521 51.7991 72.672 52.0801C72.392 52.361 72.0036 52.5332 71.57 52.5332H66.1952C65.7165 52.5786 65.2558 52.642 64.8041 52.7326C64.3524 52.8233 63.9188 52.9321 63.5214 53.068C63.142 53.1949 62.7716 53.349 62.4284 53.5303C62.0941 53.7025 61.778 53.8928 61.4889 54.1103L61.4257 54.1919C61.2541 54.3279 61.0915 54.4729 60.9379 54.627C60.7753 54.7901 60.6308 54.9714 60.4953 55.1617C60.1791 55.5968 59.9262 56.0953 59.7365 56.621C59.5468 57.1557 59.4293 57.7177 59.3932 58.2706V58.2796C59.3571 58.8144 59.3932 59.331 59.5106 59.7933C59.619 60.2283 59.7907 60.6181 60.0436 60.9444L60.0617 60.9716C60.1339 61.0622 60.2062 61.1438 60.2875 61.2254C60.3688 61.3069 60.4591 61.3794 60.5585 61.4519L60.5856 61.4973ZM36.6566 59.3582C36.2502 59.4579 35.8437 59.3854 35.5004 59.177C35.1571 58.9685 34.8952 58.6331 34.7868 58.2162C34.6784 57.7993 34.7597 57.3823 34.9584 57.0379C35.1662 56.6935 35.5004 56.4306 35.9159 56.3219C39.4479 55.4246 41.5797 55.3611 43.2599 55.9593C44.9582 56.5666 46.1054 57.8083 47.7133 59.5304L47.894 59.7298C48.5534 60.4368 49.0954 61.0078 49.5832 61.4519C50.0439 61.8779 50.4594 62.1952 50.8659 62.4036C51.2543 62.603 51.6789 62.7299 52.2118 62.8024C52.7719 62.884 53.4403 62.9021 54.2714 62.8931C54.696 62.884 55.0844 63.0562 55.3734 63.3281C55.6535 63.6 55.8341 63.9898 55.8432 64.4248V64.4339V64.4792C55.8341 64.8871 55.6715 65.2678 55.4096 65.5397C55.1386 65.8207 54.7502 66.0019 54.3256 66.011H54.3166H54.2804C53.2145 66.0291 52.3473 65.9929 51.5885 65.866C50.7936 65.7391 50.1071 65.5216 49.4477 65.1771C48.8063 64.8508 48.2282 64.4248 47.6139 63.872C47.0177 63.3372 46.3854 62.6755 45.6266 61.8598L45.446 61.6604C44.2445 60.3643 43.3773 59.4307 42.194 59.0138C40.9926 58.5969 39.3937 58.6603 36.6928 59.3492L36.6566 59.3582ZM70.0976 21.5263C69.9982 21.2453 69.8808 20.9824 69.7453 20.7287C69.5646 20.4024 69.3478 20.1033 69.122 19.8495C68.869 19.5594 68.5981 19.3147 68.3361 19.1153C68.0561 18.9069 67.7851 18.7528 67.5412 18.6531C67.1437 18.499 66.8456 18.1908 66.683 17.8283C66.5204 17.4657 66.5023 17.0397 66.6559 16.6409C66.8095 16.2421 67.1166 15.943 67.4779 15.7799C67.8393 15.6167 68.2638 15.5986 68.6613 15.7527C69.131 15.934 69.6369 16.2149 70.1337 16.5775C70.5854 16.9128 71.037 17.3207 71.4525 17.8011C71.7055 18.0911 71.9494 18.4084 72.1662 18.7437C72.2926 18.934 72.4101 19.1334 72.5185 19.3329C72.7262 19.2332 72.943 19.1334 73.1869 19.0247L73.214 19.0156C73.6024 18.8434 74.036 18.6621 74.5238 18.4627C75.0116 18.2633 75.5536 18.0367 76.1769 17.7648C76.7912 17.4929 77.4777 17.1848 78.2545 16.8041C78.643 16.6137 79.0675 16.6047 79.4379 16.7406C79.8173 16.8675 80.1425 17.1485 80.3231 17.5382C80.5128 17.928 80.5219 18.354 80.3864 18.7256C80.2599 19.1063 79.9799 19.4326 79.5915 19.6138C78.8056 19.9945 78.0829 20.3299 77.4325 20.6108C76.8092 20.8827 76.2401 21.1184 75.7252 21.3359C75.7072 21.345 75.6801 21.3541 75.653 21.3631C73.1959 22.3873 72.663 22.623 72.401 25.4781L72.392 25.5778C72.2294 27.2908 72.112 28.6232 71.6422 29.8921C71.1725 31.1791 70.3686 32.3483 68.86 33.6988C68.5439 33.9889 68.1374 34.1158 67.7399 34.0886C67.3424 34.0614 66.954 33.8892 66.6649 33.572C66.3759 33.2547 66.2494 32.8469 66.2765 32.448C66.3036 32.0492 66.4752 31.6595 66.7914 31.3695C67.8573 30.4178 68.4174 29.5839 68.7426 28.6685C69.0768 27.7259 69.1762 26.6654 69.3026 25.3058L69.3117 25.2061C69.393 24.3088 69.4923 23.5747 69.6278 22.9674C69.7543 22.3964 69.9079 21.9251 70.0976 21.5263ZM4.39004 41.5843C4.39004 41.5662 4.39004 41.539 4.39004 41.5208C4.41714 41.113 4.5978 40.7414 4.87783 40.4785C5.1669 40.2066 5.55532 40.0434 5.97085 40.0616C5.98892 40.0616 6.01602 40.0616 6.03408 40.0616C6.44058 40.0888 6.81094 40.27 7.0729 40.551C7.3439 40.8411 7.5065 41.2399 7.48843 41.6659C7.43423 43.3154 7.95816 44.3306 8.79824 45.0466C9.6835 45.7989 10.9481 46.2612 12.2851 46.7506C14.2814 47.4848 16.3952 48.2552 18.1205 49.8504C19.8549 51.4547 21.1647 53.8475 21.4718 57.7721C21.508 58.1981 21.3634 58.6059 21.1015 58.905C20.8395 59.2132 20.4691 59.4126 20.0446 59.4489C19.62 59.4851 19.2135 59.3401 18.9154 59.0773C18.6083 58.8144 18.4096 58.4428 18.3734 58.0168C18.1386 55.062 17.154 53.2765 15.8441 52.0891L15.817 52.0619C14.4982 50.8746 12.809 50.2583 11.2191 49.6782C9.40347 49.0165 7.68716 48.3821 6.41348 47.2219C5.1127 46.0346 4.30874 44.3396 4.39004 41.5843ZM77.0351 65.7935C77.6493 66.0654 78.2726 66.2829 78.923 66.4551C79.9618 66.727 81.0368 66.8902 82.1479 66.9355C83.6745 66.9989 85.2733 66.863 86.9355 66.5548C88.6066 66.2467 90.341 65.7663 92.1295 65.1409C92.536 64.9959 92.9606 65.0321 93.3129 65.2134C93.6742 65.3856 93.9633 65.6938 94.0988 66.1016C94.2433 66.5095 94.2072 66.9355 94.0265 67.289C93.8549 67.6515 93.5478 67.9416 93.1413 68.0775C91.1901 68.7664 89.2751 69.2921 87.4232 69.6274C85.5624 69.9628 83.7558 70.1169 82.0124 70.0443C80.287 69.9718 78.6249 69.6818 77.0531 69.147C75.5356 68.6304 74.0902 67.8962 72.7443 66.9083L67.8122 68.1863C68.8329 69.4371 69.9079 70.5066 71.0551 71.3948C72.3559 72.4009 73.747 73.1532 75.2375 73.6517C76.8634 74.1865 78.6249 74.4131 80.5219 74.2952C82.4369 74.1774 84.4965 73.7061 86.7096 72.8722C87.1071 72.7181 87.5316 72.7453 87.893 72.9085C88.2543 73.0716 88.5524 73.3798 88.706 73.7786C88.8595 74.1774 88.8324 74.6034 88.6698 74.9659C88.5072 75.3285 88.2001 75.6276 87.8026 75.7817C85.2553 76.7515 82.8615 77.2863 80.6122 77.4132C78.3539 77.54 76.2401 77.2681 74.2709 76.6155C72.383 75.9901 70.6305 75.0203 69.0045 73.7423C67.4779 72.5369 66.0597 71.0504 64.7499 69.3102C64.3073 69.4915 63.8556 69.6818 63.3859 69.8721C63.0155 70.0262 62.6361 70.1803 62.2477 70.3344C63.2594 71.7936 64.3163 73.0898 65.4093 74.2227C66.6198 75.4826 67.8664 76.534 69.1491 77.3769C70.3144 78.1383 71.4887 78.7274 72.6811 79.1171C73.8373 79.4978 74.9936 79.7063 76.1498 79.7244L76.2492 79.7063H76.2853C76.3305 79.6972 76.3666 79.6972 76.4027 79.6972C80.3322 79.4887 83.6203 78.9993 86.3212 78.1654C88.995 77.3406 91.1088 76.1805 92.7167 74.6125C94.2252 73.1351 95.3183 71.277 96.059 68.9567C96.7636 66.7452 97.1339 64.1257 97.2333 61.0441L90.4223 62.3764L77.0351 65.7935ZM78.2003 82.6701L79.7812 96.8004C79.8263 97.2174 79.6908 97.6252 79.4469 97.9334C79.203 98.2416 78.8327 98.4591 78.4081 98.5044H78.39C77.9745 98.5497 77.568 98.4138 77.2609 98.1691C76.9538 97.9243 76.737 97.5527 76.6918 97.1267L75.0839 82.7698C73.8463 82.661 72.6178 82.3891 71.4074 81.9631C70.0614 81.4918 68.7336 80.8211 67.4418 79.9691C65.9333 78.9721 64.4518 77.7304 63.0426 76.2439C61.7147 74.8481 60.4501 73.2438 59.2577 71.4492C58.5622 71.703 57.8666 71.9387 57.1891 72.1562C56.3852 72.419 55.6083 72.6456 54.8585 72.8541L54.6418 72.9085C56.06 75.4463 57.6227 77.3678 59.2126 78.9359C60.9108 80.6126 62.6452 81.8816 64.2531 83.0508C66.6378 84.8001 68.7787 86.3681 70.3053 88.6522C71.841 90.9543 72.7262 93.9363 72.5727 98.4863C72.5546 98.9123 72.3739 99.302 72.0849 99.5739C71.7958 99.8459 71.3983 100.009 70.9738 99.9909C70.5492 99.9818 70.1608 99.7915 69.8898 99.5014C69.6188 99.2114 69.4562 98.8126 69.4743 98.3866C69.6007 94.6342 68.869 92.1779 67.6044 90.3018C66.3307 88.4074 64.4879 87.0569 62.4284 85.5614C60.6488 84.2563 58.7248 82.8514 56.8278 80.948C54.9669 79.0809 53.1332 76.7515 51.4801 73.5883C50.3419 73.7695 49.2489 73.8692 48.2282 73.8511C47.1081 73.8421 46.0783 73.697 45.1298 73.4161C43.1425 73.3073 41.2365 73.1079 39.4298 72.7725C37.5961 72.4372 35.8708 71.9749 34.2719 71.3677C32.7182 70.7694 31.2729 70.0353 29.9721 69.1199C28.7345 68.2588 27.6144 67.2527 26.6388 66.0744C25.3561 66.2376 24.1005 66.3464 22.8629 66.3826C21.5441 66.4189 20.2523 66.3826 18.9967 66.2648C17.6237 66.1379 16.2868 65.9022 14.995 65.5669C13.7033 65.2315 12.4477 64.7783 11.2372 64.2164C9.34024 63.3281 7.80459 62.3855 6.53994 61.3522C5.26626 60.3009 4.26358 59.1588 3.45962 57.8718C2.67373 56.6119 2.08657 55.2342 1.62588 53.6934C1.17422 52.1798 0.830958 50.4939 0.523829 48.6087C-0.0452629 45.0919 -0.135595 41.8834 0.153468 38.9377C0.44253 35.9738 1.12905 33.2728 2.11367 30.7713C3.08926 28.2787 4.35391 25.9947 5.83535 23.8647C7.30777 21.7347 8.97891 19.7588 10.7675 17.8645C11.6527 16.7497 12.6193 15.7346 13.64 14.7919C14.6608 13.8584 15.7538 12.9973 16.892 12.1906C18.0121 11.4112 19.1774 10.6861 20.3788 10.0063C21.5712 9.32651 22.7907 8.70111 24.0192 8.11197C27.9667 5.31128 31.8961 3.35352 35.8256 2.06647C39.7641 0.770357 43.7116 0.154024 47.6862 0.0361957C51.6066 -0.0816326 55.5451 0.299044 59.5377 1.00601C63.5033 1.70392 67.5231 2.72812 71.6332 3.91547C75.9782 3.83389 79.6457 4.30521 82.7711 5.23877C85.9328 6.17233 88.5434 7.56815 90.7384 9.30838C92.9154 11.0305 94.6588 13.0698 96.1313 15.3267C97.5766 17.5473 98.7418 19.9582 99.7716 22.478C100.928 23.5384 102.039 24.7167 103.096 25.9856C104.162 27.2727 105.155 28.6413 106.059 30.0734C107.405 32.2124 108.543 34.4965 109.392 36.8258C110.196 39.0374 110.729 41.2852 110.919 43.5058C111.135 45.9439 110.937 48.3458 110.241 50.6208C109.591 52.7326 108.507 54.7176 106.908 56.5122C106.366 57.1104 105.779 57.6905 105.137 58.2253C104.514 58.751 103.837 59.2495 103.096 59.7208C103.006 59.7842 102.906 59.8477 102.798 59.893C102.698 59.9383 102.59 59.9746 102.473 59.9927L100.35 60.4096C100.287 64.0895 99.8529 67.2346 99.0038 69.9084C98.1095 72.7 96.7636 74.9841 94.8756 76.824C93.0509 78.6096 90.7475 79.9419 87.911 80.9027C85.183 81.8091 81.9672 82.3801 78.2003 82.6701Z" stroke="white" mask="url(#path-1-outside-1_1322_17)"/>
</g>
<defs>
<clipPath id="clip0_1322_17">
<rect width="111" height="100" fill="white"/>
</clipPath>
</defs>
</svg>
