<svg width="135" height="100" viewBox="0 0 135 100" fill="none" xmlns="http://www.w3.org/2000/svg">
<path fill-rule="evenodd" clip-rule="evenodd" d="M14.2604 5H119.74C121.929 5.00521 124.027 5.87135 125.575 7.40898C127.123 8.94661 127.995 11.0306 128 13.2051V86.7949C127.992 88.9686 127.119 91.0511 125.572 92.5882C124.024 94.1252 121.928 94.9922 119.74 95H14.2604C12.072 94.9922 9.97552 94.1252 8.42809 92.5882C6.88066 91.0511 6.00785 88.9686 6 86.7949L6 13.2051C6.00524 11.0306 6.87722 8.94661 8.42521 7.40898C9.97321 5.87135 12.0712 5.00521 14.2604 5ZM94.1641 58.6884C94.3049 58.0868 94.6806 57.5654 95.2085 57.239C95.7363 56.9126 96.3731 56.8078 96.9788 56.9477C97.5844 57.0877 98.1093 57.4608 98.4379 57.9852C98.7665 58.5095 98.872 59.142 98.7311 59.7436L93.6478 81.3708C93.5069 81.9724 93.1312 82.4937 92.6034 82.8202C92.0755 83.1466 91.4387 83.2514 90.8331 83.1114C90.2275 82.9715 89.7026 82.5983 89.374 82.074C89.0453 81.5497 88.9399 80.9172 89.0807 80.3156L94.1641 58.6884ZM22.0641 77.2091C21.3637 77.2091 20.692 76.9327 20.1967 76.4407C19.7014 75.9488 19.4232 75.2815 19.4232 74.5858C19.4232 73.8901 19.7014 73.2228 20.1967 72.7309C20.692 72.2389 21.3637 71.9625 22.0641 71.9625H46.8851C47.2319 71.9625 47.5753 72.0304 47.8957 72.1622C48.2162 72.294 48.5073 72.4873 48.7525 72.7309C48.9978 72.9745 49.1923 73.2636 49.325 73.5819C49.4577 73.9002 49.526 74.2413 49.526 74.5858C49.526 74.9303 49.4577 75.2714 49.325 75.5897C49.1923 75.9079 48.9978 76.1971 48.7525 76.4407C48.5073 76.6843 48.2162 76.8776 47.8957 77.0094C47.5753 77.1412 47.2319 77.2091 46.8851 77.2091H22.0641ZM22.0641 60.8284C21.3637 60.8284 20.692 60.552 20.1967 60.0601C19.7014 59.5681 19.4232 58.9009 19.4232 58.2051C19.4232 57.5094 19.7014 56.8422 20.1967 56.3502C20.692 55.8582 21.3637 55.5819 22.0641 55.5819H65.193C65.8935 55.5819 66.5652 55.8582 67.0605 56.3502C67.5557 56.8422 67.834 57.5094 67.834 58.2051C67.834 58.9009 67.5557 59.5681 67.0605 60.0601C66.5652 60.552 65.8935 60.8284 65.193 60.8284H22.0641ZM22.0641 44.4477C21.3637 44.4477 20.692 44.1714 20.1967 43.6794C19.7014 43.1874 19.4232 42.5202 19.4232 41.8245C19.4232 41.1287 19.7014 40.4615 20.1967 39.9695C20.692 39.4776 21.3637 39.2012 22.0641 39.2012H90.3913C91.0917 39.2012 91.7634 39.4776 92.2587 39.9695C92.754 40.4615 93.0322 41.1287 93.0322 41.8245C93.0322 42.5202 92.754 43.1874 92.2587 43.6794C91.7634 44.1714 91.0917 44.4477 90.3913 44.4477H22.0641ZM86.2015 76.0059C86.6309 76.4213 86.8836 76.9844 86.9078 77.5792C86.932 78.1741 86.7257 78.7556 86.3315 79.204C85.9373 79.6525 85.385 79.9338 84.7883 79.9901C84.1917 80.0465 83.5959 79.8735 83.1237 79.5069L74.1882 71.7653C73.9571 71.5647 73.7681 71.3209 73.632 71.0477C73.4959 70.7745 73.4154 70.4773 73.3951 70.1732C73.3749 69.8691 73.4152 69.564 73.5138 69.2753C73.6124 68.9867 73.7673 68.7202 73.9697 68.4911C74.0382 68.4083 74.1147 68.3323 74.1981 68.2643L83.1336 60.5325C83.5997 60.1271 84.2088 59.9222 84.827 59.9629C85.4451 60.0036 86.0217 60.2866 86.4299 60.7495C86.838 61.2125 87.0443 61.8175 87.0033 62.4315C86.9623 63.0455 86.6775 63.6183 86.2114 64.0237L79.3311 70.0197L86.2015 76.0059ZM105.284 79.5168C105.052 79.7175 104.782 79.8709 104.49 79.9681C104.199 80.0653 103.89 80.1046 103.583 80.0835C103.276 80.0624 102.977 79.9815 102.701 79.8454C102.426 79.7092 102.18 79.5205 101.978 79.2899C101.776 79.0594 101.621 78.7916 101.523 78.5018C101.425 78.212 101.386 77.9059 101.407 77.601C101.428 77.296 101.51 76.9982 101.647 76.7245C101.784 76.4508 101.974 76.2067 102.206 76.0059L109.086 70.0197L102.206 64.0335C101.975 63.8328 101.787 63.5889 101.651 63.3157C101.515 63.0425 101.434 62.7454 101.414 62.4414C101.394 62.1374 101.434 61.8323 101.532 61.5437C101.631 61.2551 101.786 60.9886 101.988 60.7594C102.19 60.5301 102.435 60.3427 102.71 60.2077C102.985 60.0728 103.284 59.9929 103.591 59.9728C103.897 59.9526 104.204 59.9926 104.494 60.0903C104.785 60.188 105.053 60.3417 105.284 60.5424L114.219 68.2742C114.303 68.3422 114.379 68.4182 114.448 68.501C114.65 68.7301 114.805 68.9965 114.904 69.2852C115.002 69.5738 115.043 69.8789 115.022 70.1831C115.002 70.4872 114.922 70.7844 114.785 71.0576C114.649 71.3308 114.46 71.5746 114.229 71.7751L105.294 79.5168H105.284ZM123.155 27.9684H11.2521V87.5937C11.2541 87.8951 11.3176 88.1929 11.4387 88.4692C11.5599 88.7455 11.7362 88.9945 11.957 89.2012C12.1691 89.4125 12.4215 89.5797 12.6993 89.6931C12.9772 89.8066 13.275 89.864 13.5754 89.8619H120.802C121.102 89.864 121.4 89.8066 121.678 89.6931C121.956 89.5797 122.208 89.4125 122.42 89.2012C122.634 88.9912 122.803 88.7406 122.917 88.4645C123.031 88.1884 123.089 87.8922 123.085 87.5937V27.9684H123.155ZM111.876 14.2209C112.684 14.219 113.474 14.455 114.146 14.8992C114.818 15.3434 115.343 15.9757 115.653 16.7162C115.964 17.4567 116.046 18.2719 115.89 19.0588C115.733 19.8458 115.345 20.5689 114.775 21.1367C114.205 21.7046 113.478 22.0916 112.686 22.2488C111.894 22.406 111.073 22.3263 110.327 22.0198C109.581 21.7133 108.943 21.1938 108.494 20.5271C108.045 19.8603 107.806 19.0762 107.806 18.2742C107.806 17.2009 108.234 16.1714 108.997 15.4116C109.76 14.6517 110.796 14.2235 111.876 14.2209ZM84.2357 14.2209C85.0427 14.2209 85.8317 14.4586 86.5027 14.904C87.1738 15.3494 87.6968 15.9824 88.0056 16.723C88.3145 17.4637 88.3953 18.2787 88.2378 19.0649C88.0804 19.8512 87.6918 20.5734 87.1211 21.1402C86.5504 21.7071 85.8233 22.0931 85.0318 22.2495C84.2402 22.4059 83.4197 22.3257 82.6741 22.0189C81.9285 21.7121 81.2912 21.1926 80.8428 20.526C80.3944 19.8595 80.1551 19.0758 80.1551 18.2742C80.1551 17.1992 80.585 16.1682 81.3503 15.4081C82.1155 14.6479 83.1534 14.2209 84.2357 14.2209ZM98.056 14.2209C98.8631 14.2209 99.652 14.4586 100.323 14.904C100.994 15.3494 101.517 15.9824 101.826 16.723C102.135 17.4637 102.216 18.2787 102.058 19.0649C101.901 19.8512 101.512 20.5734 100.941 21.1402C100.371 21.7071 99.6436 22.0931 98.8521 22.2495C98.0605 22.4059 97.2401 22.3257 96.4944 22.0189C95.7488 21.7121 95.1115 21.1926 94.6631 20.526C94.2147 19.8595 93.9754 19.0758 93.9754 18.2742C93.9754 17.1992 94.4053 16.1682 95.1706 15.4081C95.9358 14.6479 96.9738 14.2209 98.056 14.2209Z" fill="white"/>
</svg>
