<svg width="129" height="100" viewBox="0 0 129 100" fill="none" xmlns="http://www.w3.org/2000/svg">
<g clip-path="url(#clip0_1322_2)">
<path d="M109.621 22.3074H109.904C110.723 22.3074 111.447 22.6857 111.93 23.2636C123.908 35.5995 130.197 62.3831 128.801 80.3089C128.412 85.279 127.436 89.6501 125.83 92.9495C124.003 96.7111 121.368 99.1804 117.841 99.8319C113.347 100.662 107.731 98.2873 100.981 91.4049C100.109 90.5222 99.2066 89.6291 98.2828 88.7149C95.1333 85.6152 91.816 82.3474 89.013 78.4071H39.9766C37.1631 82.3789 33.8457 85.6467 30.6858 88.7465C29.7725 89.6501 28.8697 90.5327 28.0088 91.4049C21.2586 98.2873 15.6421 100.662 11.149 99.8319C7.62162 99.1804 4.97612 96.7111 3.15996 92.9495C1.55375 89.6396 0.577436 85.279 0.189008 80.3089C-1.20723 62.299 5.14409 35.3578 17.2168 23.0955C17.7312 22.5701 18.4031 22.3074 19.0855 22.3074V22.2969H19.3794C20.8597 20.2585 22.6968 18.6193 24.7649 17.3794C27.9039 15.4986 31.5572 14.5634 35.1895 14.5634C38.8323 14.5634 42.4856 15.4986 45.6141 17.3794C47.6717 18.6088 49.5088 20.248 50.9681 22.2864H59.272C58.6316 6.60922 62.9883 2.6689 69.4236 2.22759C71.7542 2.06998 74.2212 2.47977 76.8038 2.91058C81.6854 3.71965 87.0813 4.61279 90.9131 0.777551C91.9419 -0.252185 93.6006 -0.252185 94.6294 0.777551C95.6582 1.80729 95.6582 3.46747 94.6294 4.49721C88.887 10.2343 82.0948 9.11001 75.9534 8.09078C73.6858 7.71251 71.5232 7.35525 69.7701 7.47084C66.2952 7.702 63.9856 10.6021 64.5315 22.3074H78.0425C79.5122 20.269 81.3599 18.6193 83.4175 17.3899C86.5564 15.5091 90.2098 14.5739 93.8316 14.5739C97.4534 14.5739 101.107 15.5196 104.246 17.3899C106.303 18.6193 108.151 20.2585 109.621 22.3074ZM95.3958 54.5865C97.3274 56.5199 97.3274 59.6406 95.3958 61.574C93.4642 63.5074 90.3462 63.5074 88.4146 61.574C86.483 59.6406 86.483 56.5199 88.4146 54.5865C90.3357 52.6637 93.4642 52.6637 95.3958 54.5865ZM106.377 44.7305C108.308 46.6639 108.308 49.7846 106.377 51.718C104.445 53.6514 101.327 53.6514 99.3956 51.718C97.4639 49.7846 97.4639 46.6639 99.3956 44.7305C101.327 42.7971 104.445 42.7971 106.377 44.7305ZM84.4043 44.7305C86.336 46.6639 86.336 49.7846 84.4043 51.718C82.4727 53.6514 79.3548 53.6514 77.4231 51.718C75.4915 49.7846 75.4915 46.6639 77.4231 44.7305C79.3548 42.7971 82.4832 42.7971 84.4043 44.7305ZM95.3958 35.9252C97.3274 37.8586 97.3274 40.9793 95.3958 42.9127C93.4642 44.8461 90.3462 44.8461 88.4146 42.9127C86.483 40.9793 86.483 37.8586 88.4146 35.9252C90.3357 34.0023 93.4642 34.0023 95.3958 35.9252ZM28.1873 36.8078H36.7642V45.5606H45.5091V54.1452H36.7642V62.898H28.1873V54.1452H19.4424V45.5606H28.1873V36.8078ZM108.781 27.5717H108.214V27.5612C107.322 27.5612 106.45 27.1094 105.967 26.2793C104.844 24.4089 103.311 22.9379 101.548 21.8871C99.2486 20.5107 96.5506 19.8277 93.8211 19.8277C91.1021 19.8277 88.3936 20.5107 86.0945 21.8871C84.3833 22.9064 82.8926 24.3249 81.7798 26.1112C81.3494 26.9728 80.4571 27.5612 79.4283 27.5612H49.5718V27.5507C48.6795 27.5507 47.8082 27.0989 47.3252 26.2688C46.2124 24.3984 44.6797 22.9379 42.9266 21.8871C40.617 20.5002 37.9085 19.8067 35.1895 19.8067C32.4705 19.8067 29.762 20.5002 27.4524 21.8871C25.7413 22.9169 24.24 24.3249 23.1272 26.1112C22.6968 26.9728 21.8045 27.5612 20.7757 27.5612H20.2088C9.64775 39.1405 4.14677 63.4444 5.42753 79.9201C5.76347 84.2492 6.57182 87.9794 7.88408 90.6693C8.97587 92.9074 10.3721 94.3575 12.0938 94.6727C14.8968 95.1876 18.886 93.2121 24.2715 87.7272C25.1639 86.8236 26.0772 85.9199 27.0115 85.0058C30.2449 81.8325 33.6568 78.4701 36.2813 74.5403C36.7222 73.7102 37.5936 73.1533 38.6014 73.1533H90.3987V73.1638C91.2491 73.1638 92.0784 73.5736 92.5823 74.3407C95.2488 78.3755 98.7027 81.78 101.968 84.9953C102.912 85.9199 103.836 86.8341 104.729 87.7482C110.104 93.2332 114.103 95.2086 116.906 94.6937C118.628 94.3785 120.035 92.9284 121.116 90.6903C122.428 87.9899 123.237 84.2703 123.573 79.9412C124.853 63.4444 119.352 39.1405 108.781 27.5717Z" fill="white"/>
</g>
<defs>
<clipPath id="clip0_1322_2">
<rect width="129" height="100" fill="white"/>
</clipPath>
</defs>
</svg>
