<svg width="130" height="100" viewBox="0 0 130 100" fill="none" xmlns="http://www.w3.org/2000/svg">
<path fill-rule="evenodd" clip-rule="evenodd" d="M92.3102 30.0433H116.364C118.195 30.0433 119.866 30.7904 121.055 31.9915C122.264 33.202 123 34.8665 123 36.6918V87.5917C123 89.4264 122.254 91.1004 121.055 92.292C119.847 93.5026 118.186 94.2402 116.364 94.2402H92.3102C90.4788 94.2402 88.8079 93.4931 87.6185 92.292C86.4102 91.0815 85.6738 89.4169 85.6738 87.5917V36.6824C85.6738 34.8476 86.4196 33.1737 87.6185 31.982C88.8268 30.7715 90.4788 30.0433 92.3102 30.0433ZM9.87923 5H110.058C111.644 5 112.937 6.29567 112.937 7.88451V25.324H106.82V12.9821C106.82 11.5824 105.677 10.4286 104.271 10.4286H15.6566C14.2594 10.4286 13.1077 11.5729 13.1077 12.9821V62.6619C13.1077 64.0616 14.25 65.2154 15.6566 65.2154H79.4056V77.2547H9.87923C8.29329 77.2547 7 75.959 7 74.3702V7.88451C7 6.29567 8.29329 5 9.87923 5ZM46.9033 81.2363H73.0241C73.0902 85.7664 74.9499 89.8142 80.0003 93.0108H39.9365C43.9674 90.079 46.9222 86.5135 46.9033 81.2363ZM59.9684 67.5325C62.0075 67.5325 63.6689 69.1875 63.6689 71.2398C63.6689 73.2826 62.0075 74.9471 59.9684 74.9471C57.9294 74.9471 56.2679 73.292 56.2679 71.2398C56.2679 69.197 57.9199 67.5325 59.9684 67.5325ZM104.327 86.069C105.828 86.069 107.056 87.2796 107.056 88.8022C107.056 90.3059 105.847 91.5354 104.327 91.5354C102.826 91.5354 101.599 90.3249 101.599 88.8022C101.599 87.2985 102.808 86.069 104.327 86.069ZM88.4681 83.9884H120.196V40.3424H88.4681V83.9884Z" fill="white"/>
</svg>
