<svg width="155" height="100" viewBox="0 0 155 100" fill="none" xmlns="http://www.w3.org/2000/svg">
<g clip-path="url(#clip0_1322_5)">
<path d="M96.7237 26.5386V25.2748C96.7202 24.2198 96.9305 23.1751 97.3418 22.2039C97.7443 21.2188 98.3406 20.3249 99.0951 19.5753C100.603 18.0785 102.636 17.2344 104.759 17.2248C105.581 17.2232 106.398 17.3512 107.181 17.6039C107.721 17.7693 108.241 17.9939 108.732 18.2737V17.3511C108.73 16.2935 108.936 15.2458 109.338 14.2676C109.748 13.2865 110.343 12.394 111.091 11.639C111.812 10.9042 112.669 10.3163 113.614 9.9077C115.586 9.09867 117.797 9.09867 119.769 9.9077C120.772 10.2772 121.694 10.8396 122.481 11.5632C123.233 12.3149 123.829 13.2083 124.235 14.1918C124.655 15.1656 124.873 16.2145 124.878 17.2753V18.2231C125.934 17.6425 127.106 17.3059 128.309 17.2381C129.511 17.1704 130.714 17.373 131.828 17.8314C132.804 18.2472 133.691 18.848 134.439 19.6006C135.938 21.1078 136.781 23.1474 136.786 25.2748V61.6706C136.836 61.9908 136.874 62.3067 136.899 62.6184C136.899 62.9596 136.899 63.2882 136.899 63.6168V64.8173L138.98 62.7827L139.472 62.2899C140.819 60.876 142.484 59.8057 144.329 59.1684C145.97 58.6455 147.733 58.6455 149.374 59.1684C150.022 59.3745 150.641 59.6633 151.216 60.0278C151.788 60.3765 152.31 60.8017 152.767 61.2915C153.222 61.8017 153.612 62.3662 153.928 62.9723C154.249 63.5776 154.487 64.2238 154.634 64.8932C155.141 66.9236 154.913 69.0685 153.991 70.9465C153.101 72.7629 151.906 74.4128 150.459 75.8245C149.589 76.7092 148.416 77.9603 147.041 79.4389C141.263 85.6438 131.904 95.64 125.938 98.0412C121.081 99.9747 113.652 100.569 106.701 99.5703C100.394 98.7109 94.4784 96.6258 91.1483 93.2516C90.5488 92.6397 89.9844 91.9941 89.4581 91.318L90.2149 83.8746C90.3032 84.1273 90.4041 84.3927 90.505 84.6328C91.3525 86.7276 92.6042 88.6344 94.1883 90.2439C96.8751 92.9609 101.996 94.629 107.471 95.2988C113.677 96.0824 120.299 95.6274 124.336 94.0351C129.621 91.9246 139.472 81.3977 144.669 75.6729C145.855 74.4092 146.801 73.3729 147.419 72.7536L147.583 72.602C147.661 72.5389 147.76 72.5074 147.861 72.5135C148.047 72.3561 148.224 72.1873 148.39 72.008C149.437 70.8959 151.203 68.558 150.598 66.0179C150.513 65.7046 150.399 65.4 150.257 65.108C150.113 64.823 149.931 64.5593 149.715 64.3245C149.304 63.8875 148.793 63.5577 148.226 63.364C147.327 63.1111 146.37 63.1599 145.502 63.503C144.395 63.8849 143.384 64.5013 142.537 65.3102C142.046 65.8031 140.708 67.1426 139.359 68.4064C138.69 69.0382 138.009 69.6701 137.378 70.163C136.93 70.548 136.454 70.8986 135.953 71.2119C135.785 71.3289 135.597 71.4145 135.398 71.4646C135.198 71.529 134.99 71.5631 134.78 71.5657C134.704 71.564 134.63 71.5422 134.565 71.5025L133.228 70.8454C133.162 70.8163 133.105 70.7687 133.065 70.7082C133.025 70.6477 133.003 70.5769 133.001 70.5042L132.585 63.6168C132.585 56.8178 132.585 50.6508 132.585 44.4837C132.585 37.9122 132.585 31.3408 132.585 25.3001C132.586 24.8052 132.488 24.3151 132.295 23.8594C131.914 22.9354 131.184 22.1996 130.264 21.8122C129.341 21.441 128.311 21.441 127.388 21.8122C126.922 22.0087 126.495 22.2868 126.127 22.6336C125.78 22.9998 125.506 23.4286 125.319 23.8973C125.112 24.3286 124.992 24.7968 124.966 25.2748V50.2717C124.968 50.3258 124.959 50.3798 124.939 50.4303C124.92 50.4808 124.89 50.5269 124.853 50.5658C124.815 50.6047 124.77 50.6356 124.72 50.6567C124.67 50.6779 124.617 50.6887 124.563 50.6887H120.955C120.901 50.6887 120.847 50.6779 120.798 50.6567C120.748 50.6356 120.703 50.6047 120.665 50.5658C120.627 50.5269 120.598 50.4808 120.578 50.4303C120.559 50.3798 120.55 50.3258 120.551 50.2717V17.2753C120.553 16.7804 120.454 16.2903 120.261 15.8347C119.88 14.9107 119.15 14.1748 118.23 13.7874C117.773 13.6042 117.285 13.5099 116.792 13.5094C116.298 13.508 115.809 13.6069 115.354 13.8C114.887 13.9871 114.459 14.2616 114.093 14.6088C113.747 14.9779 113.469 15.4058 113.273 15.8726C113.088 16.3301 112.994 16.8195 112.996 17.3132V50.2717C112.996 50.3823 112.952 50.4883 112.874 50.5665C112.796 50.6448 112.69 50.6887 112.579 50.6887H108.947C108.836 50.6887 108.73 50.6448 108.652 50.5665C108.574 50.4883 108.53 50.3823 108.53 50.2717V25.2748C108.531 24.7853 108.436 24.3004 108.253 23.8468C108.063 23.3766 107.785 22.9475 107.433 22.583C107.072 22.2274 106.643 21.9481 106.172 21.7616C105.728 21.5768 105.252 21.4822 104.771 21.4836C104.282 21.4872 103.798 21.5859 103.346 21.7742C102.421 22.159 101.687 22.8951 101.303 23.8215C101.106 24.2806 101.008 24.7755 101.012 25.2748V50.2717C101.014 50.3258 101.005 50.3798 100.985 50.4303C100.966 50.4808 100.936 50.5269 100.899 50.5658C100.861 50.6047 100.816 50.6356 100.766 50.6567C100.716 50.6779 100.663 50.6887 100.609 50.6887H97.1273C97.0169 50.6887 96.9111 50.6448 96.833 50.5665C96.7549 50.4883 96.7111 50.3823 96.7111 50.2717V33.6913C96.7115 33.2019 96.6172 32.7169 96.4336 32.2633C96.2474 31.7913 95.9686 31.3616 95.6137 30.9996C95.2523 30.6439 94.8234 30.3646 94.3523 30.1781C94.1405 30.09 93.9209 30.0223 93.6963 29.9759C94.2922 28.6664 94.7652 27.3041 95.1091 25.9067C95.6703 26.0642 96.2119 26.2846 96.7237 26.5638V26.5386ZM77.2099 -5.15696e-05C77.9163 10.1099 91.224 16.3022 86.6073 26.8798C85.938 28.3573 84.972 29.6808 83.7698 30.7679C82.5675 31.855 81.1546 32.6824 79.6192 33.1985C77.8229 33.7792 75.875 33.6665 74.1574 32.8826C67.2323 29.7864 66.3619 21.3193 68.3549 14.7984C70.184 8.78296 74.2709 3.42469 77.1847 -0.0379639L77.2099 -5.15696e-05ZM69.0739 51.6997C74.5247 52.9065 80.1727 52.9065 85.6234 51.6997L81.6248 91.0906C81.423 94.1615 80.8427 96.2719 77.1595 96.9038C76.0166 96.8784 74.924 96.4279 74.0943 95.64C73.3084 94.7481 72.8617 93.6069 72.8329 92.4175L69.0487 51.7376L69.0739 51.6997ZM73.0726 36.5348C75.7958 37.6346 78.8385 37.6346 81.5617 36.5348L85.5225 48.9321C79.976 50.3867 74.1518 50.4084 68.5946 48.9953C70.411 43.1821 70.9156 42.3101 73.0726 36.5853V36.5348ZM58.2764 25.2748V26.5386C58.8492 26.2259 59.4597 25.988 60.0928 25.8309C60.2685 26.684 60.4874 27.5276 60.7487 28.3583C60.9253 28.8891 61.1146 29.4073 61.3164 29.9254C61.071 29.976 60.8304 30.0479 60.5974 30.1402C60.1263 30.3267 59.6973 30.606 59.336 30.9617C58.981 31.3237 58.7022 31.7534 58.5161 32.2254C58.3324 32.679 58.2382 33.1639 58.2386 33.6534V50.2717C58.2386 50.3823 58.1947 50.4883 58.1167 50.5665C58.0386 50.6448 57.9327 50.6887 57.8223 50.6887H54.3787C54.3246 50.6887 54.2711 50.6779 54.2213 50.6567C54.1715 50.6356 54.1264 50.6047 54.0887 50.5658C54.0511 50.5269 54.0216 50.4808 54.0021 50.4303C53.9826 50.3798 53.9734 50.3258 53.9751 50.2717V25.2748C53.9765 24.784 53.8778 24.298 53.6849 23.8468C53.5051 23.3716 53.2255 22.9407 52.865 22.583C52.5069 22.2235 52.0771 21.9436 51.6036 21.7616C51.1632 21.5806 50.6922 21.4862 50.2161 21.4836C49.7221 21.4822 49.2329 21.5811 48.7781 21.7742C48.307 21.9607 47.8781 22.24 47.5167 22.5957C47.1649 22.9602 46.8865 23.3893 46.6968 23.8594C46.5277 24.3116 46.4463 24.792 46.4572 25.2748V50.2717C46.4572 50.3823 46.4133 50.4883 46.3352 50.5665C46.2572 50.6448 46.1513 50.6887 46.0409 50.6887H42.3702C42.2598 50.6887 42.154 50.6448 42.0759 50.5665C41.9978 50.4883 41.954 50.3823 41.954 50.2717V17.2753C41.94 16.7782 41.8286 16.2887 41.626 15.8347C41.2393 14.913 40.5048 14.1818 39.5826 13.8C39.1277 13.6069 38.6386 13.508 38.1446 13.5094C37.652 13.5099 37.164 13.6042 36.7066 13.7874C35.7867 14.1748 35.0568 14.9107 34.6757 15.8347C34.4829 16.2903 34.3842 16.7804 34.3856 17.2753V50.2843C34.3873 50.3385 34.3781 50.3924 34.3586 50.4429C34.3391 50.4935 34.3096 50.5395 34.272 50.5784C34.2343 50.6173 34.1892 50.6483 34.1394 50.6694C34.0896 50.6905 34.0361 50.7014 33.982 50.7013H30.4375C30.3271 50.7013 30.2212 50.6574 30.1431 50.5792C30.0651 50.501 30.0212 50.3949 30.0212 50.2843V25.2748C30.0232 24.7811 29.929 24.2917 29.7437 23.8341C29.5476 23.3674 29.2699 22.9395 28.9238 22.5704C28.5588 22.2193 28.1308 21.9406 27.6624 21.749C26.7395 21.3778 25.7093 21.3778 24.7864 21.749C23.8665 22.1364 23.1366 22.8722 22.7556 23.7962C22.5706 24.2664 22.4847 24.7698 22.5033 25.2748C22.5033 31.3281 22.5033 37.9122 22.5033 44.4584C22.5033 50.6255 22.5033 56.7926 22.5033 63.5915L22.087 70.4789C22.083 70.5509 22.0598 70.6205 22.0199 70.6805C21.98 70.7405 21.9248 70.7887 21.86 70.8201L20.5103 71.4773C20.4445 71.4969 20.3743 71.4969 20.3085 71.4773C20.0986 71.4746 19.8902 71.4405 19.6904 71.3762C19.49 71.3244 19.3015 71.2343 19.1354 71.1108C18.6198 70.8382 18.1263 70.5255 17.6596 70.1756C17.0415 69.6575 16.3982 69.0509 15.6918 68.419C14.3547 67.1553 13.005 65.8157 12.5131 65.3228C11.7007 64.45 10.7057 63.7682 9.59925 63.3261C8.71546 62.9716 7.73886 62.9227 6.82418 63.1871C6.54011 63.2841 6.26899 63.4157 6.01689 63.5789C5.76363 63.7446 5.53076 63.9398 5.32312 64.1602C5.11116 64.3983 4.92901 64.6614 4.78072 64.9437C4.63979 65.2346 4.52986 65.5396 4.45276 65.8536C4.20673 66.977 4.33982 68.1504 4.83118 69.1899C5.4165 70.471 6.27811 71.6061 7.35397 72.5135L7.54318 72.6905C8.16126 73.3097 9.1073 74.3333 10.2804 75.5971C15.5152 81.246 25.3414 91.8614 30.6393 93.9719C34.6757 95.5769 41.2981 96.0318 47.5041 95.2356C52.9786 94.5279 58.0998 92.8598 60.774 90.1807C62.2702 88.675 63.4761 86.9056 64.3311 84.9614L64.987 91.9499C64.6086 92.3922 64.2302 92.8219 63.8265 93.2137C60.4965 96.5878 54.5679 98.673 48.2736 99.5324C41.3233 100.48 33.8937 99.9368 29.0373 98.0032C23.0205 95.6021 13.7114 85.6059 7.93421 79.4009C6.55929 77.9224 5.41142 76.6713 4.51583 75.7866C3.04408 74.3886 1.82371 72.747 0.908247 70.9339C-0.0142382 69.0559 -0.242181 66.911 0.264937 64.8805C0.412645 64.2112 0.65027 63.565 0.971317 62.9596C1.28747 62.3536 1.67726 61.789 2.1318 61.2789C2.58934 60.789 3.1113 60.3639 3.68331 60.0151C4.25783 59.6507 4.8768 59.3618 5.52495 59.1558C7.18575 58.6194 8.97279 58.6194 10.6336 59.1558C12.4778 59.7931 14.143 60.8634 15.49 62.2772L15.9819 62.7701L18.0632 64.8047V63.6041C18.0632 63.2756 18.0632 62.947 18.0632 62.6058C18.0632 62.2646 18.1263 61.9739 18.1767 61.658V25.2748C18.1788 24.2153 18.3893 23.1666 18.7962 22.1886C19.2032 21.2107 19.7985 20.3226 20.5481 19.5753C21.2967 18.8227 22.1833 18.2219 23.1592 17.8061C24.8836 17.0959 26.8005 17.0066 28.5832 17.5533C29.1138 17.7177 29.6254 17.9379 30.1095 18.2105V17.25C30.1061 16.191 30.3163 15.1421 30.7276 14.1665C31.1332 13.183 31.7291 12.2896 32.4809 11.5379C33.23 10.7891 34.1167 10.1926 35.092 9.78132C37.0644 8.9723 39.2752 8.9723 41.2476 9.78132C42.1922 10.1899 43.0489 10.7778 43.7704 11.5126C44.5182 12.2676 45.1136 13.1602 45.5237 14.1412C45.9252 15.1194 46.1309 16.1671 46.1292 17.2248V18.1473C47.6567 17.2726 49.4279 16.9226 51.1725 17.1508C52.9171 17.3789 54.5393 18.1728 55.7915 19.411C56.546 20.1606 57.1422 21.0545 57.5448 22.0396C58.0175 23.053 58.267 24.1563 58.2764 25.2748ZM147.835 72.5135H147.936C147.936 72.5135 147.848 72.5135 147.785 72.4377L147.835 72.5135Z" fill="white"/>
</g>
<defs>
<clipPath id="clip0_1322_5">
<rect width="155" height="100" fill="white"/>
</clipPath>
</defs>
</svg>
