<svg width="131" height="100" viewBox="0 0 131 100" fill="none" xmlns="http://www.w3.org/2000/svg">
<g clip-path="url(#clip0_1322_12)">
<path fill-rule="evenodd" clip-rule="evenodd" d="M65.5051 0C83.2106 0 98.7617 9.24781 107.614 23.1862H120.709C126.361 23.1862 131 27.8358 131 33.5009V66.5837C131 72.2335 126.346 76.8984 120.709 76.8984H107.561C98.7003 90.7907 83.1748 100 65.5051 100C47.8329 100 32.3099 90.7907 23.447 76.8984H10.2907C4.6285 76.8984 0 72.2591 0 66.5837V33.5009C0 27.8204 4.62338 23.1862 10.2907 23.1862H23.3958C32.2485 9.24781 47.7996 0 65.5051 0ZM37.7009 38.0761H45.6837L41.943 62.006H31.9722L30.2144 53.1993H29.7564L28.0371 62.006H18.0688L14.3256 38.0761H22.3084L24.102 51.44H24.3322L27.0827 38.0761H32.9265L35.6387 51.44H35.8689L37.7009 38.0761ZM63.1614 52.971H55.5215V56.287H64.8808V62.006H47.8815V38.0761H64.6889L63.7346 43.7976H55.5215V47.4188H63.1614V52.971ZM68.4117 62.006V38.0761H80.7902C83.0801 38.0761 84.7176 38.5249 85.6975 39.4173C86.6775 40.3098 87.1687 41.6126 87.1687 43.3232C87.1687 45.0337 86.8566 46.3519 86.2323 47.2854C85.608 48.2163 84.7739 48.8216 83.73 49.1037V49.3345C86.8105 49.8705 88.3534 51.976 88.3534 55.651C88.3534 57.5667 87.8442 59.1029 86.8259 60.2647C85.805 61.4264 84.2391 62.006 82.1257 62.006H68.4117ZM79.0324 52.4735H75.6474V56.3793H78.994C80.0635 56.3793 80.5983 55.728 80.5983 54.4252C80.5983 53.1249 80.0738 52.4735 79.0324 52.4735ZM78.4593 43.3232H75.6474V46.8828H78.4209C79.388 46.8828 79.8716 46.2904 79.8716 45.103C79.8716 43.9156 79.4008 43.3232 78.4593 43.3232ZM108.464 46.5007V43.6053C107.699 43.477 106.463 43.4155 104.759 43.4155C103.052 43.4155 100.926 43.6822 98.3779 44.2182L97.3852 38.9583C100.491 37.9863 103.498 37.5016 106.402 37.5016C108.896 37.5016 110.705 37.6555 111.826 37.9607C112.947 38.2684 113.773 38.6377 114.308 39.0711C115.48 40.0687 116.065 41.5741 116.065 43.5899C116.065 46.1416 115.009 47.9804 112.895 49.1037V49.296C115.416 50.3424 116.677 52.2427 116.677 54.9996C116.677 56.3537 116.467 57.5078 116.048 58.4643C115.625 59.4209 115.098 60.1621 114.461 60.6853C113.824 61.2084 112.985 61.6239 111.938 61.9291C110.385 62.365 108.203 62.5805 105.388 62.5805C102.574 62.5805 99.7544 62.2496 96.9272 61.5854L97.9967 55.6741C100.417 56.2614 102.467 56.5563 104.148 56.5563C105.829 56.5563 107.266 56.4794 108.464 56.3255V53.4686L101.893 52.8172V47.2649L108.464 46.5007ZM10.2907 27.7793H120.709C123.849 27.7793 126.418 30.3644 126.418 33.5009V66.5837C126.418 69.7202 123.838 72.3053 120.709 72.3053H10.2907C7.1615 72.3053 4.58244 69.7305 4.58244 66.5837V33.5009C4.58244 30.3542 7.15383 27.7793 10.2907 27.7793ZM63.0028 22.7502V8.72721C60.3214 11.0969 57.8677 13.4537 55.6366 15.8003C53.4286 18.1238 51.4354 20.4396 49.6597 22.7502H63.0028ZM101.128 77.3344H88.2689C83.8605 83.7022 78.3109 89.3391 72.444 94.3631L72.9506 94.2836C83.9705 92.4884 94.3763 86.2462 101.128 77.3344ZM58.5816 94.358C52.7198 89.3391 47.1651 83.6971 42.7643 77.3344H29.933C36.7184 86.2898 47.0449 92.4704 58.1057 94.281L58.5816 94.358ZM29.8818 22.7502H43.5038C45.5532 19.8112 47.9225 16.862 50.6141 13.9051C53.1138 11.1584 55.895 8.40151 58.9602 5.63691L58.2362 5.74462C47.1702 7.47057 36.6672 13.7845 29.8818 22.7502ZM72.0884 5.67538C77.7761 10.7891 83.1364 16.4491 87.4988 22.7502H101.1C94.0539 13.4614 83.5688 7.40389 72.0884 5.67538ZM67.9997 8.72721V22.7502H81.3428C79.5672 20.4396 77.5766 18.1238 75.3685 15.8003C73.1374 13.4537 70.6811 11.0969 67.9997 8.72721ZM67.9997 77.3344V91.5652C73.1144 87.308 77.9731 82.5892 82.0771 77.3344H67.9997ZM63.0028 91.5677V77.3344H48.9229C53.0064 82.602 57.8805 87.3234 63.0028 91.5677Z" fill="white"/>
</g>
<defs>
<clipPath id="clip0_1322_12">
<rect width="131" height="100" fill="white"/>
</clipPath>
</defs>
</svg>
